<?xml version="1.0" encoding="UTF-8" standalone="no"?>
<!-- Generator: Adobe Illustrator 21.1.0, SVG Export Plug-In . SVG Version: 6.00 Build 0)  -->

<svg
   version="1.1"
   id="Calque_1"
   x="0px"
   y="0px"
   viewBox="0 0 189225 16900"
   xml:space="preserve"
   width="189225"
   height="16900"
   xmlns="http://www.w3.org/2000/svg"
   xmlns:svg="http://www.w3.org/2000/svg"><defs
   id="defs7" />
<style
   type="text/css"
   id="style1">
	.st0{fill:#B4CC04;}
</style>
<path
   class="st0"
   d="m 87,-23.4 c -48.3,-0.5 -87.4,38.9 -87,87 0.5,46.9 38.6,85.1 85.6,85.6 48.3,0.5 87.4,-38.9 87,-87 -0.5,-47 -38.9,-85.1 -85.6,-85.6 z m 39.5,116.9 c 0,0.2 -0.2,0.2 -0.2,0.2 H 124 c -0.2,0 -0.2,0 -0.2,-0.2 L 106.3,40.1 88.8,93.5 c 0,0.2 -0.2,0.2 -0.2,0.2 h -2.3 c -0.2,0 -0.2,0 -0.2,-0.2 L 66.3,36.2 45.3,60.1 c 3,0 6,0.5 8.5,1.2 2.8,0.7 5.3,1.8 7.4,3.2 2.1,1.4 3.7,3.2 4.8,5.3 1.2,2.1 1.8,4.6 1.8,7.4 v 0.2 c 0,2.5 -0.5,4.8 -1.6,6.9 -1.1,2.1 -2.5,3.9 -4.4,5.3 -1.9,1.4 -3.8,2.7 -6.1,3.4 -2.3,0.9 -4.8,1.2 -7.6,1.2 -4.8,0 -9,-0.9 -12.7,-3 -3.7,-2.1 -6.7,-4.6 -9,-7.8 -0.2,-0.2 0,-0.5 0,-0.5 l 2.3,-1.8 H 29 c 0,0 0.2,0 0.2,0.2 2.3,3 5.1,5.3 8.1,7.1 3.2,1.8 6.9,2.5 10.8,2.5 2.1,0 4.1,-0.2 6.2,-0.9 1.8,-0.7 3.7,-1.6 5.1,-2.8 1.4,-1.2 2.5,-2.8 3.5,-4.4 1,-1.6 1.4,-3.5 1.4,-5.5 v -0.2 c 0,-2.3 -0.5,-4.4 -1.4,-6 C 62,69.5 60.6,68.1 58.8,67 57,65.8 54.9,65.2 52.4,64.5 49.9,64 47.1,63.6 44.1,63.6 h -2.5 c -0.2,0 -0.2,0 -0.2,-0.2 l -0.9,-1.6 c 0,-0.2 0,-0.2 0,-0.5 L 61.4,36.5 h -32 c -0.2,0 -0.5,-0.2 -0.5,-0.5 v -2.5 c 0,-0.2 0.2,-0.5 0.5,-0.5 h 36.1 0.5 2.5 c 0.2,0 0.2,0 0.2,0.2 L 87,87.2 104.4,33 c 0,-0.2 0.2,-0.2 0.5,-0.2 h 2.3 c 0.2,0 0.2,0 0.5,0.2 l 17.5,54.5 18.4,-54.3 c 0,-0.2 0.2,-0.2 0.2,-0.2 h 3 c 0.2,0 0.2,0 0.2,0.2 v 0.2 z"
   id="path7" />
</svg>
