<svg xml:space="preserve" style="max-height: 500px" viewBox="0 0 260.295 144.76847290640393" y="0px" x="0px" xmlns:xlink="http://www.w3.org/1999/xlink" xmlns="http://www.w3.org/2000/svg" id="Layer_1" version="1.1" width="260.295" height="144.76847290640393">
<style type="text/css">
	.st0{fill:none;}
	.st1{fill:#E6148C;}
	.st2{fill:#8DC63F;}
	.st3{fill:url(#SVGID_3_);}
	.st4{fill:url(#SVGID_4_);}
	.st5{fill:#1C75BC;}
</style>
<pattern style="overflow:visible;" viewBox="0 -55.8 55.8 55.8" id="SVGID_1_" patternUnits="userSpaceOnUse" height="55.8" width="55.8" y="219">
	<g>
		<rect height="55.8" width="55.8" class="st0" y="-55.8"/>
		<g>
			<rect height="55.8" width="55.8" class="st0" y="-55.8"/>
			<rect height="55.8" width="55.8" class="st1" y="-55.8"/>
		</g>
	</g>
</pattern>
<pattern style="overflow:visible;" viewBox="0 -55.8 55.8 55.8" id="SVGID_2_" patternUnits="userSpaceOnUse" height="55.8" width="55.8" y="219">
	<g>
		<rect height="55.8" width="55.8" class="st0" y="-55.8"/>
		<g>
			<rect height="55.8" width="55.8" class="st0" y="-55.8"/>
			<rect height="55.8" width="55.8" class="st1" y="-55.8"/>
		</g>
	</g>
</pattern>
<path d="M5.8,103.5c0,0,87-65.3,112.4,18.5C123.9,141,95.6,55.1,5.8,103.5z" class="st2"/>
<circle r="10" cy="64.1" cx="78.9" class="st2"/>
<pattern patternTransform="matrix(1 0 0 -1 -36 -16330.6943)" xlink:href="#SVGID_1_" id="SVGID_3_">
</pattern>
<path d="M248.3,100.8c0,0-87-65.3-112.4,18.5C130.2,138.3,158.4,52.4,248.3,100.8z" class="st3"/>
<pattern patternTransform="matrix(1 0 0 -1 -36 -16330.6943)" xlink:href="#SVGID_2_" id="SVGID_4_">
</pattern>
<circle r="10" cy="62.3" cx="170.8" class="st4"/>
<ellipse ry="11.9" rx="11.9" cy="32.6" cx="122.3" class="st5"/>
<path d="M123.7,73c-15.4-52.6-66.6-41.8-66.6-41.8c42.5,1.6,61.8,54.3,71,87.5c7.8,27.9-25.9-100,121.9-112.8&#10;&#9;C250,5.8,134.8-1.6,123.7,73z" class="st5"/>
<g>
	<path d="M310.2,114.2c-4.5,2.8-10,4.3-15.8,4.3c-17.6,0-30.9-14-30.9-32.4s13.3-32.4,30.9-32.4c5.8,0,11.3,1.6,15.8,4.3v9.3&#10;&#9;&#9;c-4.1-3.6-9.5-5.8-15.8-5.8c-13.1,0-23,10.8-23,24.5c0,13.8,9.8,24.5,23,24.5c6.3,0,11.8-2.2,15.8-5.7V114.2z"/>
	<path d="M324.2,97.9c0.9,8,6.9,13.6,15,13.6c5.9,0,11.8-2.7,15.5-5.6v8c-3.7,2.5-9.4,4.7-16,4.7c-12.5,0-21.9-9.8-21.9-23.5&#10;&#9;&#9;c0-13.1,9.2-23.4,21.5-23.4c12.4,0,20.8,9.8,20.8,22.1c0,1.4-0.2,3.2-0.4,4.2h-34.5V97.9z M324.2,91.8h27.7&#10;&#9;&#9;c-0.1-8.1-6.1-13.5-13.6-13.5C330.6,78.3,324.8,84.2,324.2,91.8z"/>
	<path d="M375.2,79.7c2.4-4.8,6.6-8,12.9-8c9.9,0,16.2,7.6,16.2,17.8v28.1H397V91.3c0-7.1-4.2-12.1-10.9-12.1&#10;&#9;&#9;c-6.6,0-10.6,4.6-10.9,11.6v26.8h-7.3v-45h7.3L375.2,79.7L375.2,79.7z"/>
	<path d="M418.8,117.6V79.2h-8v-6.7h8.4v-11l7-1.9v12.9h8.5v6.7h-8.5v38.4H418.8z"/>
	<path d="M449.2,78.7c2-4.2,5.7-7,11.1-7c1.1,0,2.5,0.2,3.6,0.5v8.2c-1.4-0.6-3.3-1.1-5.2-1.1c-6.2,0-9.3,4.6-9.5,11.6v26.8h-7.3&#10;&#9;&#9;v-45h7.3V78.7z"/>
	<path d="M474.6,97.9c0.9,8,6.9,13.6,15,13.6c5.9,0,11.8-2.7,15.5-5.6v8c-3.7,2.5-9.4,4.7-16,4.7c-12.5,0-21.9-9.8-21.9-23.5&#10;&#9;&#9;c0-13.1,9.2-23.4,21.5-23.4c12.4,0,20.8,9.8,20.8,22.1c0,1.4-0.2,3.2-0.4,4.2h-34.5V97.9z M474.6,91.8h27.7&#10;&#9;&#9;c-0.1-8.1-6.1-13.5-13.6-13.5C481,78.3,475.1,84.2,474.6,91.8z"/>
	<path d="M559.8,79.2H549v38.4h-7.3V79.2H535v-6.7h6.7v-5.6c0-9,5.2-14.1,13.5-14.1c1.6,0,4.1,0.4,5.1,0.7v7.9c-0.9-0.5-2.9-1-5-1&#10;&#9;&#9;c-4.2,0-6.4,2.6-6.4,6.9v5.2h10.8v6.7H559.8z"/>
	<path d="M574.5,78.7c2-4.2,5.7-7,11.1-7c1.1,0,2.5,0.2,3.6,0.5v8.2c-1.4-0.6-3.3-1.1-5.2-1.1c-6.2,0-9.3,4.6-9.5,11.6v26.8h-7.3&#10;&#9;&#9;v-45h7.3L574.5,78.7L574.5,78.7z"/>
	<path d="M597,74.8c3.2-1.7,7.6-3.1,12.4-3.1c9.7,0,16.6,5.2,16.6,17.3v28.7h-7.3v-4.9c-2.3,3.5-6.4,5.8-11.3,5.8&#10;&#9;&#9;c-9.5,0-15-6.8-15-15c0-8.3,6.3-14.8,15.1-14.8c4.7,0,9.1,2.5,11.2,5.3v-5.2c0-7.2-4.9-10.2-10-10.2c-4.2,0-8.2,1.5-11.7,3.7V74.8z&#10;&#9;&#9; M609.1,112.6c5.2,0,9.5-4,9.5-9.1c0-4.9-4.4-8.9-9.5-8.9c-5.2,0-9.5,4-9.5,8.9C599.7,108.6,604,112.6,609.1,112.6z"/>
	<path d="M645.1,79.7c2.4-4.8,6.6-8,12.9-8c9.9,0,16.2,7.6,16.2,17.8v28.1h-7.3V91.3c0-7.1-4.2-12.1-10.9-12.1&#10;&#9;&#9;c-6.6,0-10.6,4.6-10.9,11.6v26.8h-7.3v-45h7.3V79.7z"/>
	<path d="M716.9,115.4c-3,1.9-7.2,3.1-11.1,3.1c-13.1,0-22.5-10.2-22.5-23.5c0-13.2,9.5-23.4,22.5-23.4c3.8,0,8.1,1.2,11.1,3.1v8.5&#10;&#9;&#9;c-2.8-2.4-6.7-4-11.1-4c-8.6,0-15,7-15,15.8c0,8.9,6.5,16,15,16c4.3,0,8.4-1.7,11.1-4V115.4z"/>
	<path d="M745.5,71.7c12.7,0,22.4,10.3,22.4,23.4c0,13.3-9.6,23.5-22.4,23.5c-12.6,0-22.4-10.2-22.4-23.5&#10;&#9;&#9;C723.1,81.9,732.9,71.7,745.5,71.7z M745.5,111c8.5,0,14.8-7.1,14.8-16c0-8.8-6.4-15.8-14.8-15.8c-8.4,0-14.8,7-14.8,15.8&#10;&#9;&#9;C730.7,103.9,737.1,111,745.5,111z"/>
</g>
<g>
	<path d="M271.5,37.5v-29h3.5V34h11.4v3.5H271.5z"/>
	<path d="M291.3,28.4c0.4,3.7,3.2,6.3,6.9,6.3c2.7,0,5.5-1.2,7.1-2.6v3.7c-1.7,1.2-4.3,2.2-7.4,2.2c-5.8,0-10.1-4.5-10.1-10.9&#10;&#9;&#9;c0-6.1,4.2-10.8,9.9-10.8c5.7,0,9.6,4.5,9.6,10.2c0,0.6-0.1,1.5-0.2,1.9C307.1,28.4,291.3,28.4,291.3,28.4z M291.3,25.6h12.8&#10;&#9;&#9;c0-3.8-2.8-6.2-6.3-6.2S291.6,22.1,291.3,25.6z"/>
</g>
<g>
	<path d="M282.6,146.6c-1.1,0.7-2.5,1-4,1c-4.4,0-7.8-3.4-7.8-7.8c0-4.4,3.4-7.8,7.8-7.8c1.5,0,2.8,0.4,4,1v2.2&#10;&#9;&#9;c-1-0.9-2.4-1.4-4-1.4c-3.3,0-5.8,2.6-5.8,5.9c0,3.3,2.5,5.9,5.8,5.9c1.6,0,3-0.5,4-1.4V146.6z" class="st5"/>
	<path d="M286.1,142.7c0.2,1.9,1.7,3.3,3.8,3.3c1.5,0,3-0.6,3.9-1.4v1.9c-0.9,0.6-2.4,1.1-4,1.1c-3.1,0-5.5-2.4-5.5-5.6&#10;&#9;&#9;c0-3.2,2.3-5.6,5.4-5.6s5.2,2.4,5.2,5.3c0,0.3,0,0.8-0.1,1H286.1z M286.1,141.2h7c0-2-1.5-3.2-3.4-3.2&#10;&#9;&#9;C287.7,138,286.2,139.4,286.1,141.2z" class="st5"/>
	<path d="M298.9,138.3c0.6-1.2,1.7-1.9,3.2-1.9c2.5,0,4.1,1.8,4.1,4.3v6.8h-1.8v-6.3c0-1.7-1-2.9-2.7-2.9&#10;&#9;&#9;s-2.7,1.1-2.7,2.8v6.4h-1.8v-10.8h1.8v1.6H298.9z" class="st5"/>
	<path d="M309.9,147.4v-9.2h-2v-1.6h2.1V134l1.8-0.5v3.1h2.1v1.6h-2.1v9.2L309.9,147.4L309.9,147.4z" class="st5"/>
	<path d="M317.5,138.1c0.5-1,1.4-1.7,2.8-1.7c0.3,0,0.6,0,0.9,0.1v2c-0.4-0.2-0.8-0.3-1.3-0.3c-1.6,0-2.3,1.1-2.4,2.8&#10;&#9;&#9;v6.4h-1.8v-10.8h1.8V138.1z" class="st5"/>
	<path d="M323.9,142.7c0.2,1.9,1.7,3.3,3.8,3.3c1.5,0,3-0.6,3.9-1.4v1.9c-0.9,0.6-2.4,1.1-4,1.1c-3.1,0-5.5-2.4-5.5-5.6&#10;&#9;&#9;c0-3.2,2.3-5.6,5.4-5.6s5.2,2.4,5.2,5.3c0,0.3,0,0.8-0.1,1H323.9z M323.9,141.2h7c0-2-1.5-3.2-3.4-3.2&#10;&#9;&#9;C325.5,138,324.1,139.4,323.9,141.2z" class="st5"/>
	<path d="M345.4,138.2h-2.7v9.2h-1.8v-9.2h-1.7v-1.6h1.7v-1.4c0-2.2,1.3-3.4,3.4-3.4c0.4,0,1,0.1,1.3,0.2v1.9&#10;&#9;&#9;c-0.2-0.1-0.7-0.2-1.2-0.2c-1.1,0-1.6,0.6-1.6,1.7v1.2h2.7L345.4,138.2L345.4,138.2z" class="st5"/>
	<path d="M349,138.1c0.5-1,1.4-1.7,2.8-1.7c0.3,0,0.6,0,0.9,0.1v2c-0.4-0.2-0.8-0.3-1.3-0.3c-1.6,0-2.3,1.1-2.4,2.8v6.4&#10;&#9;&#9;h-1.8v-10.8h1.8V138.1z" class="st5"/>
	<path d="M354.7,137.1c0.8-0.4,1.9-0.8,3.1-0.8c2.4,0,4.2,1.2,4.2,4.2v6.9h-1.8v-1.2c-0.6,0.8-1.6,1.4-2.8,1.4&#10;&#9;&#9;c-2.4,0-3.8-1.6-3.8-3.6s1.6-3.6,3.8-3.6c1.2,0,2.3,0.6,2.8,1.3v-1.2c0-1.7-1.2-2.4-2.5-2.4c-1.1,0-2.1,0.4-2.9,0.9v-1.9H354.7z&#10;&#9;&#9; M357.8,146.2c1.3,0,2.4-1,2.4-2.2s-1.1-2.1-2.4-2.1s-2.4,1-2.4,2.1C355.4,145.3,356.5,146.2,357.8,146.2z" class="st5"/>
	<path d="M366.8,138.3c0.6-1.2,1.7-1.9,3.2-1.9c2.5,0,4.1,1.8,4.1,4.3v6.8h-1.8v-6.3c0-1.7-1-2.9-2.7-2.9&#10;&#9;&#9;s-2.7,1.1-2.7,2.8v6.4H365v-10.8h1.8V138.3z" class="st5"/>
	<path d="M384.9,146.9c-0.8,0.5-1.8,0.8-2.8,0.8c-3.3,0-5.7-2.4-5.7-5.6c0-3.2,2.4-5.6,5.7-5.6c1,0,2,0.3,2.8,0.7v2&#10;&#9;&#9;c-0.7-0.6-1.7-1-2.8-1c-2.2,0-3.8,1.7-3.8,3.8s1.6,3.8,3.8,3.8c1.1,0,2.1-0.4,2.8-1V146.9z" class="st5"/>
	<path d="M392,136.4c3.2,0,5.6,2.5,5.6,5.6c0,3.2-2.4,5.6-5.6,5.6s-5.6-2.4-5.6-5.6C386.4,138.8,388.9,136.4,392,136.4z&#10;&#9;&#9; M392,145.9c2.1,0,3.7-1.7,3.7-3.8s-1.6-3.8-3.7-3.8s-3.7,1.7-3.7,3.8C388.3,144.1,389.9,145.9,392,145.9z" class="st5"/>
	<path d="M399.9,142v-1.7h5.6v1.7H399.9z" class="st5"/>
	<path d="M413.3,136.4c3.2,0,5.6,2.5,5.6,5.6c0,3.2-2.4,5.6-5.6,5.6s-5.6-2.4-5.6-5.6&#10;&#9;&#9;C407.7,138.8,410.2,136.4,413.3,136.4z M413.3,145.9c2.1,0,3.7-1.7,3.7-3.8s-1.6-3.8-3.7-3.8s-3.7,1.7-3.7,3.8&#10;&#9;&#9;C409.6,144.1,411.2,145.9,413.3,145.9z" class="st5"/>
	<path d="M423.2,138.3c0.6-1.2,1.7-1.9,3.2-1.9c2.5,0,4.1,1.8,4.1,4.3v6.8h-1.8v-6.3c0-1.7-1-2.9-2.7-2.9&#10;&#9;&#9;s-2.7,1.1-2.7,2.8v6.4h-1.8v-10.8h1.8v1.6H423.2z" class="st5"/>
	<path d="M434.1,147.4v-9.2h-2v-1.6h2.1V134l1.8-0.5v3.1h2.1v1.6H436v9.2L434.1,147.4L434.1,147.4z" class="st5"/>
	<path d="M440.2,137.1c0.8-0.4,1.9-0.8,3.1-0.8c2.4,0,4.2,1.2,4.2,4.2v6.9h-1.8v-1.2c-0.6,0.8-1.6,1.4-2.8,1.4&#10;&#9;&#9;c-2.4,0-3.8-1.6-3.8-3.6s1.6-3.6,3.8-3.6c1.2,0,2.3,0.6,2.8,1.3v-1.2c0-1.7-1.2-2.4-2.5-2.4c-1.1,0-2.1,0.4-2.9,0.9v-1.9H440.2z&#10;&#9;&#9; M443.2,146.2c1.3,0,2.4-1,2.4-2.2s-1.1-2.1-2.4-2.1s-2.4,1-2.4,2.1C440.9,145.3,442,146.2,443.2,146.2z" class="st5"/>
	<path d="M452.3,138.1c0.5-1,1.4-1.7,2.8-1.7c0.3,0,0.6,0,0.9,0.1v2c-0.4-0.2-0.8-0.3-1.3-0.3c-1.6,0-2.3,1.1-2.4,2.8&#10;&#9;&#9;v6.4h-1.8v-10.8h1.8V138.1z" class="st5"/>
	<path d="M458.8,132c0.7,0,1.2,0.5,1.2,1.2s-0.5,1.2-1.2,1.2s-1.2-0.5-1.2-1.2S458.1,132,458.8,132z M459.7,147.4h-1.8&#10;&#9;&#9;v-10.8h1.8V147.4z" class="st5"/>
	<path d="M464,142.7c0.2,1.9,1.7,3.3,3.8,3.3c1.5,0,3-0.6,3.9-1.4v1.9c-0.9,0.6-2.4,1.1-4,1.1c-3.1,0-5.5-2.4-5.5-5.6&#10;&#9;&#9;c0-3.2,2.3-5.6,5.4-5.6s5.2,2.4,5.2,5.3c0,0.3,0,0.8-0.1,1H464z M464,141.2h7c0-2-1.5-3.2-3.4-3.2C465.6,138,464.1,139.4,464,141.2&#10;&#9;&#9;z" class="st5"/>
	<path d="M476.8,138.3c0.6-1.2,1.7-1.9,3.2-1.9c2.5,0,4.1,1.8,4.1,4.3v6.8h-1.8v-6.3c0-1.7-1-2.9-2.7-2.9&#10;&#9;&#9;s-2.7,1.1-2.7,2.8v6.4h-1.8v-10.8h1.8v1.6H476.8z" class="st5"/>
	<path d="M501,145.3c-0.8,1.4-2.2,2.4-4.1,2.4c-3.1,0-5.4-2.4-5.4-5.6c0-3.2,2.2-5.6,5.4-5.6c1.8,0,3.3,1,4.1,2.4v-6.7&#10;&#9;&#9;h1.9v15.3H501V145.3z M497.3,138.2c-2.1,0-3.8,1.7-3.8,3.8s1.6,3.8,3.8,3.8c2.2,0,3.8-1.7,3.8-3.8&#10;&#9;&#9;C501,139.9,499.4,138.2,497.3,138.2z" class="st5"/>
	<path d="M507.1,142.7c0.2,1.9,1.7,3.3,3.8,3.3c1.5,0,3-0.6,3.9-1.4v1.9c-0.9,0.6-2.4,1.1-4,1.1c-3.1,0-5.5-2.4-5.5-5.6&#10;&#9;&#9;c0-3.2,2.3-5.6,5.4-5.6s5.2,2.4,5.2,5.3c0,0.3,0,0.8-0.1,1H507.1z M507.1,141.2h7c0-2-1.5-3.2-3.4-3.2&#10;&#9;&#9;C508.7,138,507.3,139.4,507.1,141.2z" class="st5"/>
	<path d="M525.1,138.1c0.5-1,1.4-1.7,2.8-1.7c0.3,0,0.6,0,0.9,0.1v2c-0.4-0.2-0.8-0.3-1.3-0.3c-1.6,0-2.3,1.1-2.4,2.8&#10;&#9;&#9;v6.4h-1.8v-10.8h1.8V138.1z" class="st5"/>
	<path d="M531.5,142.7c0.2,1.9,1.7,3.3,3.8,3.3c1.5,0,3-0.6,3.9-1.4v1.9c-0.9,0.6-2.4,1.1-4,1.1c-3.1,0-5.5-2.4-5.5-5.6&#10;&#9;&#9;c0-3.2,2.3-5.6,5.4-5.6c3.1,0,5.2,2.4,5.2,5.3c0,0.3,0,0.8-0.1,1H531.5z M531.5,141.2h7c0-2-1.5-3.2-3.4-3.2&#10;&#9;&#9;C533.1,138,531.7,139.4,531.5,141.2z" class="st5"/>
	<path d="M548.1,138.9c-0.7-0.5-1.6-0.9-2.5-0.9c-1.2,0-1.8,0.6-1.8,1.4c0,0.6,0.3,0.9,1,1.3l1.9,1.1&#10;&#9;&#9;c1.4,0.8,1.8,1.8,1.8,2.8c0,1.8-1.4,3-3.7,3c-1.1,0-2.1-0.3-2.8-0.6v-2c0.6,0.5,1.6,1,2.7,1c1.2,0,1.9-0.6,1.9-1.4&#10;&#9;&#9;c0-0.6-0.3-1-1.1-1.5l-2-1.2c-1.1-0.7-1.6-1.6-1.6-2.6c0-1.7,1.3-3,3.7-3c1,0,1.9,0.2,2.5,0.6L548.1,138.9L548.1,138.9z" class="st5"/>
	<path d="M556.6,138.9c-0.7-0.5-1.6-0.9-2.5-0.9c-1.2,0-1.8,0.6-1.8,1.4c0,0.6,0.3,0.9,1,1.3l1.9,1.1&#10;&#9;&#9;c1.4,0.8,1.8,1.8,1.8,2.8c0,1.8-1.4,3-3.7,3c-1.1,0-2.1-0.3-2.8-0.6v-2c0.6,0.5,1.6,1,2.7,1c1.2,0,1.9-0.6,1.9-1.4&#10;&#9;&#9;c0-0.6-0.3-1-1.1-1.5l-2-1.2c-1.1-0.7-1.6-1.6-1.6-2.6c0-1.7,1.3-3,3.7-3c1,0,1.9,0.2,2.5,0.6L556.6,138.9L556.6,138.9z" class="st5"/>
	<path d="M564.4,136.4c3.2,0,5.6,2.5,5.6,5.6c0,3.2-2.4,5.6-5.6,5.6c-3.2,0-5.6-2.4-5.6-5.6&#10;&#9;&#9;C558.8,138.8,561.2,136.4,564.4,136.4z M564.4,145.9c2.1,0,3.7-1.7,3.7-3.8s-1.6-3.8-3.7-3.8c-2.1,0-3.7,1.7-3.7,3.8&#10;&#9;&#9;C560.7,144.1,562.3,145.9,564.4,145.9z" class="st5"/>
	<path d="M579.6,145.7c-0.6,1.2-1.6,1.9-3.2,1.9c-2.5,0-4-1.8-4-4.3v-6.8h1.8v6.3c0,1.7,1,2.9,2.7,2.9&#10;&#9;&#9;c1.6,0,2.6-1.1,2.7-2.8v-6.5h1.9v10.8h-1.9V145.7z" class="st5"/>
	<path d="M586.4,138.1c0.5-1,1.4-1.7,2.8-1.7c0.3,0,0.6,0,0.9,0.1v2c-0.4-0.2-0.8-0.3-1.3-0.3c-1.6,0-2.3,1.1-2.4,2.8&#10;&#9;&#9;v6.4h-1.8v-10.8h1.8V138.1z" class="st5"/>
	<path d="M599.4,146.9c-0.8,0.5-1.8,0.8-2.8,0.8c-3.3,0-5.7-2.4-5.7-5.6c0-3.2,2.4-5.6,5.7-5.6c1,0,2,0.3,2.8,0.7v2&#10;&#9;&#9;c-0.7-0.6-1.7-1-2.8-1c-2.2,0-3.8,1.7-3.8,3.8s1.6,3.8,3.8,3.8c1.1,0,2.1-0.4,2.8-1V146.9z" class="st5"/>
	<path d="M602.8,142.7c0.2,1.9,1.7,3.3,3.8,3.3c1.5,0,3-0.6,3.9-1.4v1.9c-0.9,0.6-2.4,1.1-4,1.1c-3.1,0-5.5-2.4-5.5-5.6&#10;&#9;&#9;c0-3.2,2.3-5.6,5.4-5.6c3.1,0,5.2,2.4,5.2,5.3c0,0.3,0,0.8-0.1,1H602.8z M602.8,141.2h7c0-2-1.5-3.2-3.4-3.2&#10;&#9;&#9;C604.4,138,603,139.4,602.8,141.2z" class="st5"/>
	<path d="M619.4,138.9c-0.7-0.5-1.6-0.9-2.5-0.9c-1.2,0-1.8,0.6-1.8,1.4c0,0.6,0.3,0.9,1,1.3l1.9,1.1&#10;&#9;&#9;c1.4,0.8,1.8,1.8,1.8,2.8c0,1.8-1.4,3-3.7,3c-1.1,0-2.1-0.3-2.8-0.6v-2c0.6,0.5,1.6,1,2.7,1c1.2,0,1.9-0.6,1.9-1.4&#10;&#9;&#9;c0-0.6-0.3-1-1.1-1.5l-2-1.2c-1.1-0.7-1.6-1.6-1.6-2.6c0-1.7,1.3-3,3.7-3c1,0,1.9,0.2,2.5,0.6L619.4,138.9L619.4,138.9z" class="st5"/>
	<path d="M629.3,138.9c0.8-1.5,2.2-2.5,4.1-2.5c3.1,0,5.4,2.5,5.4,5.6c0,3.2-2.3,5.6-5.4,5.6c-1.8,0-3.3-0.9-4.1-2.4&#10;&#9;&#9;v6.7h-1.8v-15.4h1.8V138.9z M633.1,145.8c2.1,0,3.8-1.7,3.8-3.8s-1.6-3.8-3.8-3.8s-3.8,1.7-3.8,3.8S631,145.8,633.1,145.8z" class="st5"/>
	<path d="M642.4,142.7c0.2,1.9,1.7,3.3,3.8,3.3c1.5,0,3-0.6,3.9-1.4v1.9c-0.9,0.6-2.4,1.1-4,1.1c-3.1,0-5.5-2.4-5.5-5.6&#10;&#9;&#9;c0-3.2,2.3-5.6,5.4-5.6c3.1,0,5.2,2.4,5.2,5.3c0,0.3,0,0.8-0.1,1H642.4z M642.4,141.2h7c0-2-1.5-3.2-3.4-3.2&#10;&#9;&#9;C644,138,642.5,139.4,642.4,141.2z M648.6,132l-1.9,3.3h-1.4l1.7-3.3H648.6z" class="st5"/>
	<path d="M662.1,145.3c-0.8,1.4-2.2,2.4-4.1,2.4c-3.1,0-5.4-2.4-5.4-5.6c0-3.2,2.2-5.6,5.4-5.6c1.8,0,3.3,1,4.1,2.4&#10;&#9;&#9;v-6.7h1.9v15.3h-1.9V145.3z M658.3,138.2c-2.1,0-3.8,1.7-3.8,3.8s1.6,3.8,3.8,3.8s3.8-1.7,3.8-3.8S660.5,138.2,658.3,138.2z" class="st5"/>
	<path d="M667.3,137.1c0.8-0.4,1.9-0.8,3.1-0.8c2.4,0,4.2,1.2,4.2,4.2v6.9h-1.8v-1.2c-0.6,0.8-1.6,1.4-2.8,1.4&#10;&#9;&#9;c-2.4,0-3.8-1.6-3.8-3.6s1.6-3.6,3.8-3.6c1.2,0,2.3,0.6,2.8,1.3v-1.2c0-1.7-1.2-2.4-2.5-2.4c-1.1,0-2.1,0.4-2.9,0.9L667.3,137.1&#10;&#9;&#9;L667.3,137.1z M670.4,146.2c1.3,0,2.4-1,2.4-2.2s-1.1-2.1-2.4-2.1c-1.3,0-2.4,1-2.4,2.1C668,145.3,669.1,146.2,670.4,146.2z" class="st5"/>
	<path d="M688.1,136.6v10c0,3.5-2.3,5.6-5.6,5.6c-1.6,0-3-0.5-3.8-0.9v-2c0.9,0.6,2.4,1.2,3.8,1.2&#10;&#9;&#9;c2.2,0,3.8-1.5,3.8-3.6v-1.8c-0.8,1.4-2.2,2.3-4.1,2.3c-3,0-5.3-2.4-5.3-5.5s2.2-5.5,5.3-5.5c1.8,0,3.3,0.9,4.1,2.4v-2.1&#10;&#9;&#9;L688.1,136.6L688.1,136.6z M682.5,138.2c-2.1,0-3.6,1.6-3.6,3.6c0,2.1,1.6,3.7,3.6,3.7c2.1,0,3.6-1.6,3.6-3.7&#10;&#9;&#9;C686.1,139.8,684.6,138.2,682.5,138.2z" class="st5"/>
	<path d="M696.1,136.4c3.2,0,5.6,2.5,5.6,5.6c0,3.2-2.4,5.6-5.6,5.6c-3.2,0-5.6-2.4-5.6-5.6&#10;&#9;&#9;C690.5,138.8,692.9,136.4,696.1,136.4z M696.1,145.9c2.1,0,3.7-1.7,3.7-3.8s-1.6-3.8-3.7-3.8c-2.1,0-3.7,1.7-3.7,3.8&#10;&#9;&#9;C692.4,144.1,694,145.9,696.1,145.9z" class="st5"/>
	<path d="M714.6,136.6v10c0,3.5-2.3,5.6-5.6,5.6c-1.6,0-3-0.5-3.8-0.9v-2c0.9,0.6,2.4,1.2,3.8,1.2&#10;&#9;&#9;c2.2,0,3.8-1.5,3.8-3.6v-1.8c-0.8,1.4-2.2,2.3-4.1,2.3c-3,0-5.3-2.4-5.3-5.5s2.2-5.5,5.3-5.5c1.8,0,3.3,0.9,4.1,2.4v-2.1&#10;&#9;&#9;L714.6,136.6L714.6,136.6z M709,138.2c-2.1,0-3.6,1.6-3.6,3.6c0,2.1,1.6,3.7,3.6,3.7c2.1,0,3.6-1.6,3.6-3.7&#10;&#9;&#9;C712.7,139.8,711.1,138.2,709,138.2z" class="st5"/>
	<path d="M718.6,132c0.7,0,1.2,0.5,1.2,1.2s-0.5,1.2-1.2,1.2s-1.2-0.5-1.2-1.2S717.9,132,718.6,132z M719.5,147.4h-1.8&#10;&#9;&#9;v-10.8h1.8V147.4z" class="st5"/>
	<path d="M731.4,136.6h1.9V152h-1.9v-6.7c-0.8,1.4-2.2,2.4-4.1,2.4c-3.1,0-5.4-2.4-5.4-5.6c0-3.2,2.3-5.6,5.4-5.6&#10;&#9;&#9;c1.8,0,3.3,1,4.1,2.4V136.6z M727.6,138.2c-2.1,0-3.8,1.7-3.8,3.8s1.6,3.8,3.8,3.8s3.8-1.7,3.8-3.8&#10;&#9;&#9;C731.4,139.9,729.8,138.2,727.6,138.2z" class="st5"/>
	<path d="M743.5,145.7c-0.6,1.2-1.6,1.9-3.2,1.9c-2.5,0-4-1.8-4-4.3v-6.8h1.8v6.3c0,1.7,1,2.9,2.7,2.9&#10;&#9;&#9;c1.6,0,2.6-1.1,2.7-2.8v-6.5h1.9v10.8h-1.9V145.7z" class="st5"/>
	<path d="M749.7,142.7c0.2,1.9,1.7,3.3,3.8,3.3c1.5,0,3-0.6,3.9-1.4v1.9c-0.9,0.6-2.4,1.1-4,1.1c-3.1,0-5.5-2.4-5.5-5.6&#10;&#9;&#9;c0-3.2,2.3-5.6,5.4-5.6c3.1,0,5.2,2.4,5.2,5.3c0,0.3,0,0.8-0.1,1H749.7z M749.7,141.2h7c0-2-1.5-3.2-3.4-3.2&#10;&#9;&#9;C751.3,138,749.8,139.4,749.7,141.2z" class="st5"/>
	<path d="M766.3,138.9c-0.7-0.5-1.6-0.9-2.5-0.9c-1.2,0-1.8,0.6-1.8,1.4c0,0.6,0.3,0.9,1,1.3l1.9,1.1&#10;&#9;&#9;c1.4,0.8,1.8,1.8,1.8,2.8c0,1.8-1.4,3-3.7,3c-1.1,0-2.1-0.3-2.8-0.6v-2c0.6,0.5,1.6,1,2.7,1c1.2,0,1.9-0.6,1.9-1.4&#10;&#9;&#9;c0-0.6-0.3-1-1.1-1.5l-2-1.2c-1.1-0.7-1.6-1.6-1.6-2.6c0-1.7,1.3-3,3.7-3c1,0,1.9,0.2,2.5,0.6L766.3,138.9L766.3,138.9z" class="st5"/>
</g>
</svg>