<?xml version="1.0" standalone="no"?>
<!DOCTYPE svg PUBLIC "-//W3C//DTD SVG 20010904//EN"
 "http://www.w3.org/TR/2001/REC-SVG-20010904/DTD/svg10.dtd">
<svg version="1.0" xmlns="http://www.w3.org/2000/svg"
 width="372.000000pt" height="550.000000pt" viewBox="0 0 372.000000 550.000000"
 preserveAspectRatio="xMidYMid meet">

<g transform="translate(0.000000,550.000000) scale(0.100000,-0.100000)"
fill="#000000" stroke="none">
<path d="M1760 5335 c-7 -8 -29 -15 -48 -15 l-36 0 33 -34 c31 -31 35 -56 10
-56 -6 0 -24 13 -40 29 -32 32 -37 30 -35 -13 1 -15 -4 -30 -11 -33 -7 -3 -13
-9 -13 -14 0 -4 7 -6 15 -3 8 4 15 1 15 -5 0 -6 -8 -11 -17 -11 -15 0 -15 -1
2 -13 10 -8 15 -19 11 -25 -3 -5 -3 -18 0 -27 6 -14 9 -14 28 3 33 31 64 44
72 31 7 -12 -24 -89 -37 -89 -4 0 -17 -20 -29 -45 -21 -43 -21 -47 -6 -85 9
-22 16 -42 16 -44 0 -2 -30 -18 -67 -36 -70 -34 -177 -132 -199 -180 -43 -95
-44 -100 -23 -139 10 -20 16 -45 13 -60 -4 -18 1 -34 15 -50 11 -12 23 -44 26
-69 4 -26 11 -69 17 -97 5 -27 14 -102 19 -165 5 -63 18 -144 28 -180 20 -64
73 -150 93 -150 10 0 6 -63 -7 -125 -6 -27 7 -79 39 -155 5 -13 -40 -15 -379
-12 l-386 2 4 -532 c3 -575 5 -596 63 -796 118 -408 355 -738 707 -986 l67
-48 0 -86 c0 -76 -2 -89 -20 -100 -16 -10 -20 -23 -20 -72 0 -78 -15 -111 -84
-185 -31 -33 -56 -62 -56 -65 0 -3 9 -18 20 -35 11 -16 20 -39 20 -50 0 -11 5
-27 11 -35 7 -11 8 -5 3 22 l-6 37 59 -17 c40 -11 95 -16 176 -16 80 0 114 -3
107 -10 -5 -5 -10 -24 -10 -42 0 -17 -9 -43 -21 -58 -27 -34 -10 -34 23 1 15
16 32 49 39 76 10 43 29 65 29 35 0 -9 4 -8 10 2 14 22 13 -3 -2 -37 -41 -95
-105 -129 -223 -120 -80 6 -102 17 -148 75 -15 20 -27 30 -27 24 0 -7 17 -29
38 -50 20 -20 44 -57 51 -80 15 -44 84 -132 95 -121 4 3 -11 24 -33 46 -35 34
-61 86 -50 98 2 2 27 -1 54 -6 28 -6 62 -8 78 -5 20 4 27 1 27 -9 0 -20 -20
-55 -45 -78 -20 -18 -19 -18 13 -2 19 9 39 30 47 48 11 25 14 28 15 11 0 -28
-36 -73 -69 -86 -15 -6 -21 -12 -13 -15 17 -7 15 -33 -3 -33 -8 0 -15 5 -15
10 0 15 -17 12 -23 -4 -3 -8 4 -24 15 -36 l21 -22 25 25 c22 22 23 28 12 42
-11 14 -8 21 28 55 25 25 46 56 54 82 6 24 29 62 49 86 25 28 41 60 49 95 6
29 16 65 23 81 9 25 8 31 -9 45 -11 9 -43 41 -71 72 -57 64 -74 118 -53 170
11 26 10 32 -9 53 -18 19 -21 34 -21 103 l0 81 73 50 c159 110 328 281 445
450 116 168 230 439 271 643 36 184 41 286 35 756 -4 247 -7 449 -8 450 -1 1
-96 3 -211 4 -116 0 -289 4 -386 7 l-176 5 24 60 c18 44 23 71 19 99 -20 126
-21 115 17 157 19 21 44 64 56 96 18 49 44 211 56 360 2 17 6 38 10 48 4 10 5
20 2 23 -9 9 22 86 42 109 20 22 32 76 31 139 -2 84 -104 218 -210 274 -34 17
-68 32 -75 32 -25 0 -27 20 -5 56 17 30 18 39 8 52 -10 12 -10 14 0 8 19 -12
15 -1 -28 65 -22 34 -40 70 -40 81 0 26 33 23 68 -7 l30 -25 4 41 c2 22 2 42
-1 45 -3 2 -4 28 -2 56 l3 52 -37 -32 c-60 -53 -77 -37 -24 23 l31 35 -42 0
c-23 0 -48 6 -56 15 -9 8 -19 15 -23 15 -5 0 -14 -7 -21 -15z m32 -10 c0 -5
-5 -11 -11 -13 -6 -2 -11 4 -11 13 0 9 5 15 11 13 6 -2 11 -8 11 -13z m78 -19
c0 -1 -11 -17 -25 -36 -45 -61 -22 -82 39 -35 l34 25 0 -65 0 -64 -26 19 c-47
38 -93 16 -71 -34 14 -30 6 -44 -15 -27 -8 7 -23 10 -33 7 -15 -5 -18 0 -18
31 0 46 -22 54 -65 23 l-30 -21 0 67 0 67 23 -21 c23 -21 57 -29 70 -15 8 7
-18 52 -40 70 -11 8 5 11 71 11 48 0 86 -1 86 -2z m-107 -276 c-13 -12 -73
-23 -73 -13 0 12 40 49 60 55 17 5 27 -29 13 -42z m24 3 c-3 -10 -5 -4 -5 12
0 17 2 24 5 18 2 -7 2 -21 0 -30z m61 17 c55 -33 36 -47 -35 -24 -14 4 -18 44
-5 44 4 0 22 -9 40 -20z m-145 -62 c-13 -6 -23 -15 -23 -20 0 -11 14 -10 27 3
5 5 34 13 63 16 47 5 55 3 72 -18 11 -13 17 -18 13 -11 -4 7 0 12 9 12 19 0
20 -19 5 -54 -14 -30 -29 -37 -90 -42 -51 -4 -78 15 -99 71 -9 25 -8 31 6 42
10 7 23 13 28 12 6 0 1 -5 -11 -11z m7 -138 c-19 -13 -30 -13 -30 0 0 6 10 10
23 10 18 0 19 -2 7 -10z m162 -50 c36 0 114 -48 163 -101 28 -30 54 -54 59
-54 5 0 11 -6 14 -14 3 -9 0 -11 -8 -6 -10 6 -11 4 -5 -11 14 -33 19 -77 8
-71 -6 4 -20 -17 -32 -46 -13 -32 -18 -53 -11 -55 15 -5 12 -22 -5 -22 -28 0
-65 24 -65 42 0 22 18 24 26 3 5 -12 10 -13 20 -4 19 15 18 58 -1 65 -8 4 -15
18 -15 34 0 35 -9 60 -21 60 -6 0 -19 -15 -30 -34 -13 -22 -26 -33 -35 -29
-21 8 -44 -15 -44 -44 0 -20 4 -23 20 -18 14 4 20 2 20 -8 0 -23 -28 -28 -66
-12 -40 16 -47 40 -9 31 24 -6 25 -5 25 43 0 46 -1 49 -22 43 -23 -5 -23 -5
-4 17 15 16 17 24 8 33 -7 7 -12 23 -13 38 0 23 -1 23 -9 5 -6 -13 -8 16 -8
80 0 84 2 95 10 68 7 -22 17 -33 30 -33z m23 50 c3 -5 12 -7 20 -3 15 5 21 -8
9 -19 -5 -6 -64 20 -64 28 0 8 29 4 35 -6z m-225 -10 c0 -5 -7 -10 -15 -10 -8
0 -15 -3 -15 -8 0 -4 -13 -13 -28 -20 -16 -6 -38 -21 -49 -31 -12 -11 -24 -17
-27 -14 -10 10 -7 23 5 23 7 0 19 8 28 18 14 16 45 34 63 36 3 1 10 4 14 9 11
10 24 9 24 -3z m60 -120 c-7 -4 -10 -22 -8 -39 1 -18 -3 -35 -10 -40 -9 -6 -8
-12 8 -26 26 -23 26 -38 0 -30 -15 5 -20 2 -19 -12 0 -10 3 -13 5 -6 4 8 13 9
30 3 28 -11 33 4 8 31 -14 16 -12 17 40 21 31 1 56 2 56 0 0 -2 -7 -16 -15
-32 l-15 -30 30 6 c28 6 30 4 30 -21 0 -23 -3 -26 -21 -22 -27 7 -36 -18 -14
-42 22 -25 60 -34 85 -21 25 14 26 40 1 47 -13 3 -17 11 -14 24 6 21 28 26 38
8 4 -6 14 4 23 22 23 45 40 48 38 7 -1 -18 -6 -39 -10 -46 -6 -10 -2 -13 15
-10 16 2 25 -3 27 -15 3 -14 -1 -17 -20 -12 -13 3 -29 1 -36 -3 -33 -22 38
-79 84 -68 25 7 33 31 12 38 -9 3 -9 12 1 36 11 26 16 30 27 21 11 -9 14 -6
14 15 0 19 5 26 18 26 10 0 22 -3 25 -6 8 -8 -12 -47 -29 -57 -21 -12 -17 -26
6 -20 14 4 20 0 20 -12 0 -12 -6 -16 -20 -12 -13 3 -20 0 -20 -9 0 -16 -31
-34 -59 -34 -12 0 -21 -4 -21 -9 0 -5 15 -5 35 -1 34 8 50 -5 21 -16 -8 -3
-12 -12 -9 -20 3 -9 -1 -14 -12 -14 -11 0 -15 5 -11 15 3 8 1 15 -4 15 -6 0
-10 -7 -10 -15 0 -8 -5 -15 -11 -15 -6 0 -9 6 -6 14 6 15 -3 28 -48 67 -27 24
-35 26 -80 19 l-50 -7 50 -2 c55 -1 81 -16 65 -36 -8 -9 -4 -11 15 -7 17 3 27
-1 31 -12 4 -9 5 -18 3 -20 -2 -2 -35 1 -74 5 -38 5 -80 10 -92 11 -13 1 -23
9 -23 18 0 10 -3 11 -8 4 -4 -6 -33 -14 -64 -18 -48 -6 -61 -4 -75 10 -16 16
-16 16 5 10 13 -5 22 -3 22 3 0 13 -47 15 -55 2 -3 -5 -1 -12 5 -16 6 -4 8
-10 5 -15 -3 -5 37 -9 92 -8 98 1 235 -16 263 -34 10 -6 4 -7 -17 -3 -27 5
-33 3 -33 -10 0 -11 -5 -15 -15 -11 -8 3 -15 1 -15 -4 0 -6 11 -10 25 -10 18
0 23 4 18 16 -4 11 -2 15 6 13 7 -3 11 -7 9 -11 -2 -3 5 -15 15 -26 18 -19 17
-19 -30 -10 -91 17 -158 23 -253 22 -95 -2 -111 -6 -239 -61 -10 -4 -12 -2 -6
6 4 7 31 24 59 37 30 13 43 23 31 23 -11 1 -35 -8 -54 -20 -18 -11 -36 -18
-39 -14 -8 8 28 32 73 49 22 8 32 15 22 15 -10 1 -35 -8 -57 -19 -46 -24 -57
-25 -41 -6 9 11 10 20 1 35 -6 12 -8 21 -5 21 3 0 1 9 -6 21 -10 19 -9 20 13
14 21 -5 20 -4 -4 12 -20 12 -26 23 -22 36 3 10 -1 26 -9 35 -9 9 -19 29 -22
45 -11 41 22 36 34 -5 5 -18 10 -25 10 -15 2 28 19 19 26 -14 4 -18 3 -35 -4
-42 -14 -14 14 -47 39 -47 29 0 71 40 68 64 -4 29 -35 33 -43 5 -6 -17 -9 -19
-16 -8 -5 8 -9 10 -9 5 0 -5 7 -18 17 -28 15 -17 15 -18 -10 -18 -26 0 -46 15
-27 22 7 2 5 20 -6 50 -11 33 -20 45 -30 41 -25 -9 -16 50 14 98 54 84 200
194 232 174 6 -4 11 6 12 22 1 15 3 -1 5 -36 3 -41 0 -67 -7 -71z m54 115 c-4
-8 -1 -15 6 -15 10 0 10 -3 0 -15 -7 -8 -8 -15 -3 -15 5 0 9 -9 9 -20 0 -11
-6 -20 -13 -20 -14 0 -19 81 -6 93 10 11 13 8 7 -8z m-27 -137 c-2 -29 -3 -8
-3 47 0 55 1 79 3 53 2 -26 2 -71 0 -100z m-92 101 c-71 -35 -165 -124 -207
-194 -16 -27 -26 -39 -23 -25 24 87 204 250 275 250 8 0 -12 -14 -45 -31z
m152 -66 c-2 -21 -4 -6 -4 32 0 39 2 55 4 38 2 -18 2 -50 0 -70z m143 87 c0
-5 -7 -10 -15 -10 -8 0 -15 5 -15 10 0 6 7 10 15 10 8 0 15 -4 15 -10z m-21
-19 c20 -11 43 -27 50 -35 14 -17 31 -21 31 -8 0 4 -14 16 -31 26 -22 13 -28
21 -20 29 7 7 18 3 35 -16 14 -15 31 -27 38 -27 8 -1 6 -6 -5 -14 -12 -9 -14
-16 -8 -21 6 -3 11 -1 11 4 0 6 7 11 15 11 8 0 15 -4 15 -10 0 -5 -7 -10 -15
-10 -21 0 -19 -13 5 -35 11 -10 20 -13 20 -7 0 6 -5 14 -10 17 -11 7 -4 25 9
25 4 0 14 -12 22 -27 8 -16 22 -37 31 -47 17 -19 17 -20 0 -36 -21 -21 -27
-18 -14 6 7 13 6 22 -6 33 -10 11 -17 12 -19 5 -2 -7 -27 13 -56 43 -29 30
-77 68 -107 84 -30 15 -49 28 -42 29 7 0 30 -9 51 -19z m-409 -54 c0 -8 -14
-26 -31 -41 -23 -20 -34 -25 -42 -17 -8 8 -6 11 6 11 9 0 17 4 17 10 0 12 32
50 42 50 5 0 8 -6 8 -13z m260 -17 c0 -5 -5 -10 -11 -10 -5 0 -7 5 -4 10 3 6
8 10 11 10 2 0 4 -4 4 -10z m0 -30 c0 -5 -4 -10 -10 -10 -5 0 -10 5 -10 10 0
6 5 10 10 10 6 0 10 -4 10 -10z m-339 -59 c-13 -24 -31 -28 -31 -6 0 8 5 15
10 15 6 0 10 8 10 17 0 12 3 14 11 6 8 -8 8 -17 0 -32z m339 9 c0 -5 -2 -10
-4 -10 -3 0 -8 5 -11 10 -3 6 -1 10 4 10 6 0 11 -4 11 -10z m-360 -50 c0 -5
-7 -10 -15 -10 -8 0 -15 5 -15 10 0 6 7 10 15 10 8 0 15 -4 15 -10z m733 -12
c6 -21 2 -36 -7 -27 -10 11 -16 49 -8 49 5 0 12 -10 15 -22z m-743 -17 c0 -6
-4 -13 -10 -16 -5 -3 -10 1 -10 9 0 9 5 16 10 16 6 0 10 -4 10 -9z m28 -120
c3 -8 -1 -12 -9 -9 -7 2 -15 10 -17 17 -3 8 1 12 9 9 7 -2 15 -10 17 -17z
m142 12 c0 -5 -4 -15 -10 -23 -11 -18 -25 -7 -17 15 6 15 27 21 27 8z m500
-163 c0 -5 -2 -10 -4 -10 -3 0 -8 5 -11 10 -3 6 -1 10 4 10 6 0 11 -4 11 -10z
m-18 -17 c4 -2 6 -12 5 -23 -1 -10 -5 -16 -9 -14 -5 3 -6 9 -3 14 3 5 -9 16
-27 24 l-33 15 30 -6 c17 -3 33 -7 37 -10z m-247 -7 c136 -7 152 -13 110 -40
-15 -10 -36 -15 -48 -12 -12 3 -5 -3 17 -13 38 -18 56 -36 56 -56 0 -5 -9 1
-20 15 l-20 25 16 -39 c8 -21 13 -48 10 -59 -3 -11 -1 -16 4 -11 5 5 10 23 12
39 2 21 9 31 23 33 18 2 20 -4 22 -48 1 -28 -1 -48 -5 -46 -4 2 -6 -27 -5 -66
1 -39 -3 -82 -8 -97 -9 -24 -8 -25 6 -7 21 28 19 16 -10 -46 -24 -52 -29 -51
-25 5 1 20 -3 27 -16 27 -13 0 -15 -3 -8 -10 8 -8 8 -25 1 -57 -9 -38 -17 -48
-43 -59 -18 -8 -45 -12 -61 -10 -15 2 -22 1 -15 -1 28 -10 9 -23 -33 -23 -25
0 -45 5 -45 10 0 6 -15 10 -33 10 -18 0 -44 8 -57 17 -30 21 -90 82 -91 94 -3
18 -5 25 -15 44 -17 32 -34 136 -39 235 -4 87 -3 91 21 107 18 11 37 14 72 10
39 -5 43 -4 22 5 -23 10 -22 11 30 22 30 6 62 10 70 9 8 -1 56 -5 105 -7z
m190 -56 c4 0 1 7 -6 16 -12 15 -11 16 11 9 33 -10 44 -21 35 -35 -5 -8 -11
-8 -17 -2 -11 11 -48 4 -48 -9 0 -5 5 -9 11 -9 5 0 7 -5 3 -11 -4 -8 -9 -7
-15 2 -4 8 -23 19 -41 25 l-33 11 30 16 c26 13 32 13 46 1 8 -8 19 -14 24 -14z
m-35 -40 c0 -5 -4 -10 -10 -10 -5 0 -10 5 -10 10 0 6 5 10 10 10 6 0 10 -4 10
-10z m78 -32 c1 -24 -3 -45 -10 -50 -10 -6 -10 -10 -1 -16 9 -5 10 -22 4 -57
l-9 -50 -2 45 -2 45 -9 -60 c-14 -99 -17 -95 -15 20 3 109 9 143 30 157 6 4
11 8 12 8 0 0 1 -19 2 -42z m-21 -220 c-3 -8 -6 -5 -6 6 -1 11 2 17 5 13 3 -3
4 -12 1 -19z m-41 -96 c-18 -16 -18 -16 -6 6 6 13 14 21 18 18 3 -4 -2 -14
-12 -24z m-326 -102 c0 -5 11 -10 25 -10 34 0 32 -9 -11 -46 -35 -32 -44 -73
-15 -66 10 2 12 -6 8 -31 -3 -22 0 -42 8 -55 8 -10 11 -23 7 -27 -4 -5 -2 -5
4 -2 7 4 14 0 18 -8 4 -11 -1 -15 -17 -15 -33 0 -70 69 -70 129 0 75 14 141
29 141 8 0 14 -4 14 -10z m258 -15 c-3 -14 1 -30 8 -36 16 -13 19 -99 3 -99
-5 0 -8 -4 -4 -9 10 -17 -37 -101 -57 -101 -23 0 -23 28 -1 52 10 11 16 32 15
48 -2 23 1 28 13 24 12 -5 15 2 15 29 0 20 -4 39 -10 42 -6 3 -7 -1 -4 -10 5
-11 2 -14 -10 -9 -9 3 -16 15 -16 25 0 10 -4 19 -10 19 -5 0 -10 9 -10 21 0
14 5 19 15 16 8 -4 17 -2 20 3 4 6 13 10 22 10 11 0 14 -7 11 -25z m-117 -57
c1 -47 2 -49 9 -24 5 16 7 33 4 38 -3 4 -1 8 5 8 6 0 8 8 4 18 -5 14 -3 13 10
-3 9 -11 17 -42 18 -70 2 -44 3 -46 6 -12 4 34 6 36 25 26 20 -11 20 -12 4
-21 -11 -6 -17 -20 -16 -36 3 -44 -1 -59 -10 -32 l-8 25 -1 -27 c-1 -15 -6
-39 -13 -53 -10 -22 -17 -25 -64 -25 -52 0 -53 1 -58 33 -3 17 -7 61 -9 97 -6
81 10 110 59 110 l34 0 1 -52z m-106 -62 c0 -31 -4 -56 -10 -56 -5 0 -8 16 -7
34 3 25 -2 37 -15 45 -17 9 -17 10 2 25 11 8 22 13 25 11 3 -2 5 -28 5 -59z
m868 -176 l87 0 0 -279 c0 -154 -3 -281 -7 -283 -5 -2 -98 -1 -208 2 -110 4
-194 7 -186 8 8 1 22 9 30 16 12 11 47 15 130 17 96 1 115 -1 123 -15 6 -11
23 -16 54 -16 44 0 44 0 43 33 -2 51 -9 67 -29 67 -10 0 -21 -8 -23 -17 -3
-10 -5 15 -6 55 -1 51 3 72 12 72 6 0 19 12 27 28 13 23 14 31 2 55 -7 15 -20
27 -28 27 -10 0 -14 14 -14 56 0 33 4 53 10 49 5 -3 18 -1 29 4 14 8 19 21 19
58 l0 48 -44 2 c-35 2 -47 -2 -63 -22 -18 -24 -24 -25 -124 -25 -99 0 -108 2
-133 25 -15 14 -33 25 -41 25 -8 0 -25 -11 -39 -25 -24 -24 -31 -25 -139 -25
-110 0 -114 1 -117 23 -2 16 -11 23 -30 25 -16 2 -28 -2 -28 -8 0 -6 -10 -8
-25 -4 -24 6 -25 5 -16 -19 6 -16 6 -28 -1 -35 -15 -15 1 -52 23 -52 16 0 19
-7 19 -55 0 -39 -4 -55 -13 -55 -8 0 -19 -11 -25 -25 -13 -29 1 -72 26 -77 11
-2 15 -17 15 -58 0 -49 -3 -55 -24 -60 -21 -5 -24 -12 -24 -50 0 -44 1 -45 30
-43 26 3 27 2 8 -6 -11 -5 -30 -7 -42 -4 -21 5 -21 9 -21 284 l0 279 223 2
c122 2 274 2 337 1 63 -2 154 -3 203 -3z m-1358 -54 c24 -22 24 -25 10 -40
-15 -15 -15 -16 0 -16 21 0 11 -37 -16 -61 -25 -22 -214 -26 -205 -4 2 7 0 16
-7 19 -9 5 -9 7 1 12 6 3 12 12 12 20 0 8 5 14 10 14 6 0 10 -6 10 -14 0 -22
21 -33 78 -39 44 -5 50 -4 39 7 -8 8 -25 12 -40 9 -16 -3 -27 -1 -27 6 0 6
-14 24 -31 41 -23 22 -27 30 -15 30 9 0 16 7 16 15 0 20 19 19 27 -1 3 -8 11
-13 19 -10 9 4 11 -4 7 -30 -6 -36 6 -45 27 -20 14 18 41 9 39 -13 -3 -29 1
-34 16 -21 18 15 20 40 2 40 -27 0 -50 26 -43 48 4 12 11 20 16 17 5 -3 11 -1
15 5 9 14 11 13 40 -14z m457 7 c7 -6 22 -13 33 -15 17 -3 16 -6 -12 -21 -22
-12 -56 -17 -109 -17 -67 0 -75 -2 -64 -15 10 -12 27 -14 79 -10 36 3 76 8 89
11 12 2 22 0 22 -6 0 -5 -4 -10 -10 -10 -5 0 -10 -7 -10 -15 0 -8 5 -15 10
-15 6 0 10 -7 10 -16 0 -12 -6 -15 -22 -11 -12 4 -28 1 -35 -5 -9 -7 -13 -7
-13 0 0 6 5 14 10 17 17 10 11 35 -8 35 -10 0 -33 -11 -52 -25 -38 -28 -61
-26 -100 11 -40 37 -68 43 -130 27 -30 -7 -72 -23 -94 -35 -21 -11 -37 -17
-34 -12 2 5 11 23 18 41 17 39 54 47 232 48 86 0 131 4 139 12 9 9 16 10 26 1
17 -13 31 -2 16 13 -7 7 -32 9 -65 5 -98 -11 -178 -13 -178 -4 0 11 -84 10
-95 -1 -17 -15 -59 -25 -50 -11 4 6 0 17 -9 23 -13 9 28 12 188 11 130 0 209
-4 218 -11z m868 -238 l0 -184 -255 -3 c-140 -2 -264 0 -277 4 -13 3 100 6
250 7 l272 1 0 175 0 175 -300 0 -301 0 6 -172 c3 -94 9 -176 12 -181 3 -5 0
-8 -8 -5 -11 4 -15 42 -17 186 l-2 182 310 0 310 0 0 -185z m-1093 135 c3 -11
10 -20 15 -20 5 0 6 -4 3 -10 -3 -5 -40 -10 -81 -10 -67 0 -74 2 -61 15 12 12
21 12 47 4 32 -12 54 -4 31 10 -18 12 -5 31 21 31 11 0 22 -8 25 -20z m975 -8
c22 -22 -4 -32 -39 -15 -18 8 -33 19 -33 23 0 12 58 6 72 -8z m-300 1 c-15 -3
-22 -10 -18 -18 2 -7 -2 -19 -10 -26 -12 -10 -12 -14 6 -26 22 -16 27 -42 8
-39 -7 0 -15 -3 -16 -9 -2 -5 -8 -15 -14 -22 -6 -8 -4 -20 8 -37 13 -21 14
-29 4 -41 -8 -10 -9 -15 -2 -15 6 0 9 -7 6 -14 -4 -12 6 -16 48 -19 43 -3 38
-4 -26 -5 l-78 -2 7 36 c6 35 6 36 -19 30 -28 -7 -36 8 -10 18 9 3 14 13 11
21 -4 8 2 16 14 20 23 8 25 21 4 29 -8 3 -15 13 -15 22 0 9 -8 23 -17 31 -16
12 -15 13 10 7 28 -6 28 -6 22 30 l-7 36 53 -1 c30 -1 44 -4 31 -6z m48 -3 c0
-5 11 -12 25 -16 22 -5 24 -11 22 -48 -2 -50 -27 -57 -40 -11 -5 17 -12 42
-17 58 -5 16 -4 27 1 27 5 0 9 -4 9 -10z m158 -4 c-10 -7 -18 -18 -18 -25 0
-14 -3 -14 -35 1 l-25 11 23 13 c12 6 33 12 47 13 23 0 24 -1 8 -13z m141 -42
c17 -4 31 -11 31 -16 0 -5 -6 -8 -12 -5 -17 6 -48 -11 -48 -25 0 -6 -8 -17
-17 -24 -17 -13 -17 -15 0 -28 9 -7 17 -21 17 -30 0 -11 9 -16 31 -16 17 0 28
-4 24 -10 -3 -5 -19 -10 -35 -10 -24 0 -29 -5 -32 -27 -2 -21 -9 -29 -26 -31
-19 -3 -23 0 -18 15 3 11 -5 31 -23 53 -26 31 -31 33 -47 20 -18 -14 -17 -13
0 8 12 13 26 20 36 17 24 -8 36 26 16 41 -16 11 -22 34 -10 34 4 0 12 -7 18
-16 7 -9 18 -12 29 -8 14 5 15 9 6 20 -9 11 -8 18 1 29 14 17 16 17 59 9z
m-922 -18 c-14 -10 -39 -13 -105 -9 -48 2 -106 0 -129 -5 -24 -5 -41 -6 -38
-2 3 5 -1 12 -9 17 -8 4 55 9 142 11 137 2 155 0 139 -12z m144 -2 c29 -15 30
-16 12 -29 -12 -10 -47 -14 -107 -15 -72 0 -86 -2 -77 -13 8 -10 33 -12 95 -9
81 4 85 4 80 -16 -3 -11 -1 -23 5 -26 21 -13 11 -22 -24 -22 -32 0 -34 1 -18
18 28 31 -11 34 -57 4 -52 -34 -81 -34 -102 2 -9 15 -27 36 -39 47 -20 18 -22
18 -16 2 6 -15 3 -16 -12 -7 -31 16 -112 0 -160 -32 -24 -16 -46 -26 -49 -23
-3 3 0 5 6 5 7 0 12 7 12 15 0 8 5 15 11 15 6 0 9 6 6 14 -4 10 13 18 60 31
54 15 87 17 189 11 87 -4 124 -3 124 5 0 6 8 8 20 4 22 -7 26 5 8 23 -17 17
-3 15 33 -4z m-602 -10 c7 5 11 -3 11 -23 0 -16 5 -33 11 -37 8 -4 7 -10 -1
-18 -9 -8 -14 -8 -17 2 -3 7 -17 24 -31 38 -15 13 -21 24 -14 24 6 0 11 3 11
8 -3 19 2 26 10 13 5 -7 14 -10 20 -7z m131 1 c7 -9 10 -18 7 -22 -4 -3 -3
-11 2 -17 6 -7 4 -23 -5 -43 -13 -25 -20 -31 -41 -27 -13 3 -22 1 -19 -5 3 -5
-4 -11 -17 -15 -12 -3 -23 -2 -24 2 -2 4 -33 5 -70 4 -60 -4 -66 -2 -54 12 9
11 10 16 2 16 -6 0 -11 5 -11 10 0 6 7 10 15 10 8 0 15 7 15 16 0 13 6 11 25
-10 31 -33 90 -38 82 -6 -6 23 7 34 30 26 12 -5 13 -9 3 -21 -10 -12 -9 -15 7
-15 11 0 25 11 31 25 11 23 10 25 -17 25 -35 0 -43 8 -30 31 12 23 52 25 69 4z
m1100 -36 c0 -11 -7 -19 -16 -19 -11 0 -14 5 -10 16 3 9 6 20 6 25 0 6 5 7 10
4 6 -3 10 -15 10 -26z m-852 -57 c22 -28 13 -32 -72 -32 -77 0 -84 2 -79 18 3
13 14 19 34 19 19 0 25 -3 17 -9 -8 -5 0 -7 22 -7 19 0 29 3 23 6 -7 2 -13 11
-13 19 0 19 50 8 68 -14z m822 18 c0 -5 -2 -10 -4 -10 -3 0 -8 5 -11 10 -3 6
-1 10 4 10 6 0 11 -4 11 -10z m-140 -46 c0 -8 -4 -12 -10 -9 -5 3 -10 10 -10
16 0 5 5 9 10 9 6 0 10 -7 10 -16z m105 -34 c2 -3 -9 -7 -24 -7 -19 0 -27 5
-24 13 4 12 39 8 48 -6z m-557 -11 c24 -9 29 -24 10 -28 -7 -2 -55 -5 -105 -8
-89 -4 -115 -15 -73 -28 11 -4 33 -4 49 0 47 10 131 14 131 6 0 -4 -5 -12 -12
-19 -9 -9 -7 -13 5 -18 9 -3 17 -13 17 -21 0 -13 -3 -13 -16 -2 -13 11 -17 10
-25 -4 -15 -27 -30 -21 -19 8 14 36 -5 41 -49 11 -46 -32 -66 -33 -94 -3 -58
61 -71 66 -140 53 -40 -8 -77 -22 -100 -40 -21 -16 -40 -26 -44 -23 -3 4 6 16
21 28 14 11 24 24 21 29 -10 16 100 31 223 31 71 0 122 4 122 10 0 5 12 6 28
3 15 -4 23 -3 19 2 -9 10 -337 13 -337 3 0 -3 -13 -6 -30 -6 -16 0 -26 5 -23
10 3 5 0 13 -6 17 -17 10 399 0 427 -11z m-622 -4 c4 -8 11 -12 17 -8 6 4 8
-3 3 -20 -3 -14 -2 -29 4 -32 5 -3 10 -2 10 3 0 5 10 12 23 16 26 7 49 -17 40
-42 -3 -10 5 -6 21 11 30 30 28 29 50 21 13 -5 13 -8 1 -20 -7 -8 -16 -14 -20
-14 -4 0 -13 -6 -20 -14 -11 -10 -11 -16 -2 -25 9 -9 8 -11 -5 -6 -10 4 -18
11 -18 17 0 5 -4 6 -10 3 -5 -3 -10 1 -10 9 0 10 -6 13 -15 10 -9 -4 -15 0
-15 10 0 12 -7 14 -30 10 -21 -5 -30 -3 -30 7 0 7 -10 23 -22 36 -20 21 -20
23 -4 17 16 -6 18 -4 13 9 -3 9 -2 17 4 17 5 0 12 -7 15 -15z m149 1 c18 -18
0 -36 -34 -36 -35 0 -53 13 -45 33 8 21 60 23 79 3z m1075 -11 c0 -8 -4 -15
-9 -15 -5 0 -11 7 -15 15 -3 9 0 15 9 15 8 0 15 -7 15 -15z m47 -11 c-3 -3
-12 -4 -19 -1 -8 3 -5 6 6 6 11 1 17 -2 13 -5z m-1297 -55 c16 -12 35 -19 42
-16 8 3 25 -3 38 -13 l23 -18 -47 -3 c-26 -3 -50 -1 -53 4 -2 4 -14 5 -25 1
-14 -4 -18 -2 -14 5 4 6 -3 15 -16 20 -21 9 -10 16 16 12 5 -1 6 5 3 14 -8 20
-2 19 33 -6z m410 -5 c0 -9 8 -23 18 -30 15 -12 12 -13 -28 -14 -43 0 -45 1
-47 30 -2 27 1 30 27 30 21 0 30 -5 30 -16z m425 6 c3 -5 1 -10 -4 -10 -6 0
-11 5 -11 10 0 6 2 10 4 10 3 0 8 -4 11 -10z m-516 -34 c31 -17 16 -24 -34
-15 -22 3 -32 7 -22 8 9 0 17 6 17 11 0 13 10 12 39 -4z m281 0 c0 -3 -4 -8
-10 -11 -5 -3 -10 -1 -10 4 0 6 5 11 10 11 6 0 10 -2 10 -4z m534 -21 c3 -8
14 -15 25 -15 11 0 23 -5 26 -10 4 -6 -10 -8 -37 -6 -24 3 -93 5 -155 5 -106
1 -111 2 -106 21 5 19 14 20 123 20 96 0 119 -3 124 -15z m-578 -120 c17 -17
24 -34 22 -53 -4 -32 -31 -37 -36 -7 -12 60 -54 59 -145 -4 -73 -50 -127 -71
-184 -71 -39 0 -46 10 -33 44 6 16 15 24 24 20 19 -7 100 18 167 51 102 52
148 57 185 20z m-426 -12 l34 -23 1 -113 c0 -108 1 -115 28 -150 15 -20 59
-55 98 -78 42 -25 66 -46 61 -51 -12 -12 -76 11 -139 48 -26 16 -52 29 -56 29
-16 0 -78 69 -91 100 -18 43 -35 121 -39 183 -3 49 -1 54 22 67 32 16 37 16
81 -12z m854 -27 c17 -36 17 -39 1 -82 -19 -51 -15 -72 5 -23 23 54 80 60 80
9 0 -33 -18 -49 -31 -29 -6 11 -13 11 -26 3 -23 -14 -28 -34 -9 -34 9 0 16 -4
16 -10 0 -5 -9 -10 -20 -10 -24 0 -26 -16 -4 -28 12 -7 13 -11 5 -17 -7 -4
-15 -4 -18 -1 -4 3 -14 -1 -24 -10 -11 -10 -19 -12 -24 -5 -3 6 -16 11 -28 11
-20 1 -21 2 -4 14 23 18 22 36 -3 36 -22 0 -27 16 -7 23 9 3 9 8 -2 21 -13 15
-15 15 -32 0 -17 -16 -19 -15 -29 10 -13 36 3 66 36 66 20 0 29 -9 45 -42 17
-36 19 -38 14 -13 -17 90 -17 105 -1 130 22 33 36 29 60 -19z m462 7 c15 -34
14 -71 -3 -127 -3 -11 -1 -16 5 -12 5 3 12 19 15 35 7 32 34 47 67 36 24 -8
28 -56 5 -75 -12 -10 -15 -10 -15 4 0 22 -36 21 -45 -1 -3 -10 -1 -19 4 -21
19 -6 12 -22 -9 -22 -25 0 -26 -16 -2 -29 15 -9 15 -10 -5 -11 -12 0 -26 -8
-32 -17 -9 -17 -10 -17 -16 0 -4 9 -16 17 -26 17 -10 0 -19 5 -19 10 0 6 7 10
15 10 8 0 15 5 15 10 0 6 -9 10 -20 10 -11 0 -20 5 -20 10 0 6 5 10 10 10 6 0
10 7 10 15 0 17 -18 19 -40 5 -21 -13 -40 7 -40 41 0 26 4 29 30 29 24 0 35
-7 52 -35 26 -45 34 -39 14 10 -20 48 -20 85 0 113 21 31 33 28 50 -15z m-926
-21 c0 -15 -2 -15 -10 -2 -13 20 -13 33 0 25 6 -3 10 -14 10 -23z m-81 -73
c30 -28 40 -44 33 -51 -6 -6 -8 -17 -5 -24 3 -8 -1 -14 -10 -14 -11 0 -13 -6
-9 -22 4 -17 2 -20 -13 -14 -15 5 -16 4 -5 -9 7 -9 10 -19 6 -22 -4 -4 -41 27
-84 68 l-77 74 73 -75 c65 -68 86 -100 64 -100 -4 0 -45 38 -91 84 l-83 83 36
7 c20 4 41 4 48 0 7 -4 8 -3 4 5 -5 8 3 16 23 24 17 6 31 15 31 19 0 16 16 7
59 -33z m125 19 c22 -31 3 -48 -24 -23 -18 16 -23 17 -30 5 -6 -8 -10 -21 -10
-29 0 -11 -3 -11 -16 0 -14 12 -14 14 0 25 9 6 16 15 16 19 0 4 -7 2 -15 -5
-20 -17 -32 -5 -15 15 19 23 76 19 94 -7z m646 -30 c27 -33 34 -72 17 -105
-23 -44 -30 -73 -18 -73 6 0 11 7 11 15 0 25 22 63 39 68 26 6 58 -9 64 -32 6
-23 -21 -64 -29 -43 -7 15 -36 16 -52 0 -16 -16 -15 -28 3 -28 8 0 15 -4 15
-10 0 -5 -11 -10 -25 -10 -27 0 -33 -18 -13 -38 9 -9 8 -12 -4 -12 -9 0 -19
-7 -22 -16 -6 -16 -8 -16 -24 0 -10 9 -24 16 -30 16 -7 0 -12 5 -12 10 0 6 7
10 15 10 8 0 15 5 15 10 0 6 -6 10 -12 10 -7 0 -20 5 -28 10 -13 9 -13 11 -1
19 12 8 13 12 1 25 -12 15 -14 15 -31 0 -10 -9 -23 -13 -28 -9 -15 9 -14 58 1
73 31 31 88 -1 88 -50 0 -15 5 -28 10 -28 14 0 12 20 -5 70 -20 57 -19 82 6
114 25 32 26 32 49 4z m-679 -39 c-13 -37 -14 -135 -2 -195 8 -41 7 -42 -23
-47 -17 -3 -39 -8 -48 -12 -21 -9 -19 11 19 150 34 128 45 157 56 146 6 -6 5
-22 -2 -42z m-212 -63 c57 -57 91 -98 86 -106 -5 -8 -13 -6 -28 7 -22 18 -22
18 -4 -3 18 -22 23 -44 9 -44 -14 0 -212 206 -212 221 0 9 11 16 28 17 23 2
44 -14 121 -92z m157 2 c-4 -13 -17 -63 -30 -113 -22 -84 -25 -90 -51 -93 -22
-3 -26 0 -22 12 4 10 -5 24 -26 40 -17 14 -28 28 -24 32 4 4 19 -3 33 -17 l25
-24 17 23 c16 20 35 63 61 135 13 32 26 37 17 5z m1088 -315 c-19 -83 -91
-281 -135 -370 -138 -281 -372 -539 -625 -693 l-56 -34 -36 20 c-49 26 -214
149 -281 210 -145 131 -295 336 -386 527 -54 114 -108 261 -120 330 l-7 37
826 0 826 0 -6 -27z m-794 -1153 c20 0 21 -4 16 -37 -3 -21 -7 -59 -8 -85 -3
-46 -4 -48 -33 -48 -52 0 -57 10 -63 116 l-5 97 35 -21 c20 -12 45 -22 58 -22z
m37 -87 c-2 -21 -4 -4 -4 37 0 41 2 58 4 38 2 -21 2 -55 0 -75z m-111 -92 c40
-18 98 -14 119 9 21 23 39 13 29 -14 -4 -11 -9 -14 -14 -7 -4 8 -14 5 -30 -9
-27 -23 -67 -26 -114 -6 -42 17 -52 32 -34 53 11 14 13 14 16 1 2 -8 14 -20
28 -27z m47 -71 c72 0 94 -8 101 -35 3 -13 29 -48 57 -79 28 -30 48 -60 44
-66 -3 -5 -19 -10 -36 -10 -17 0 -36 -8 -46 -20 -9 -11 -36 -22 -60 -26 -52
-8 -196 12 -235 32 -25 13 -27 17 -17 36 7 12 22 33 35 47 30 32 54 82 61 127
6 35 6 35 25 14 14 -15 31 -20 71 -20z m-191 -210 c44 -26 168 -44 246 -36 35
4 87 18 118 33 43 20 58 23 67 14 9 -10 8 -11 -6 -5 -13 5 -18 2 -17 -7 5 -31
-1 -37 -36 -36 -23 1 -41 -5 -49 -16 -20 -28 -108 -41 -189 -28 -133 22 -202
57 -181 91 8 13 9 13 47 -10z m221 -447 c-21 -16 -28 -16 -42 0 -8 11 -4 13
24 13 31 -1 33 -3 18 -13z"/>
<path d="M1797 5189 c4 -13 8 -18 11 -10 2 7 -1 18 -6 23 -8 8 -9 4 -5 -13z"/>
<path d="M1760 5180 c0 -5 5 -10 11 -10 5 0 7 5 4 10 -3 6 -8 10 -11 10 -2 0
-4 -4 -4 -10z"/>
<path d="M1721 4764 c0 -11 3 -14 6 -6 3 7 2 16 -1 19 -3 4 -6 -2 -5 -13z"/>
<path d="M1562 4591 c-7 -19 -9 -37 -6 -42 3 -5 -5 -18 -18 -29 -13 -11 -17
-19 -10 -20 6 0 12 5 12 10 0 6 7 10 15 10 11 0 15 11 15 42 0 41 0 41 20 23
12 -10 19 -24 16 -31 -7 -18 15 -36 30 -23 14 11 34 4 34 -12 0 -5 -9 -9 -19
-9 -23 0 -35 -28 -20 -46 31 -37 142 8 126 51 -5 11 -14 15 -27 12 -12 -3 -20
1 -23 12 -3 9 -5 3 -6 -13 -1 -23 2 -27 11 -18 16 16 28 15 28 -3 0 -20 -44
-47 -72 -43 -13 2 -23 10 -23 18 0 9 7 14 18 12 12 -2 17 4 17 21 0 25 -17 47
-37 47 -7 0 -26 14 -42 32 l-28 31 -11 -32z"/>
<path d="M1771 4546 c-9 -10 -8 -16 4 -26 19 -16 41 1 32 24 -8 20 -21 20 -36
2z m29 -4 c0 -13 -12 -22 -22 -16 -10 6 -1 24 13 24 5 0 9 -4 9 -8z"/>
<path d="M1747 4465 c-15 -14 -37 -25 -47 -25 -10 0 -21 -4 -25 -9 -8 -14 52
5 82 25 21 13 30 14 52 4 26 -12 26 -12 7 9 -24 27 -35 26 -69 -4z"/>
<path d="M1606 4435 c-3 -8 -20 -24 -38 -35 -19 -11 -26 -20 -17 -20 9 0 28
11 43 25 15 14 37 25 49 26 21 0 21 1 2 9 -29 12 -32 12 -39 -5z"/>
<path d="M1882 4398 c3 -7 18 -14 34 -15 27 -2 28 -1 10 13 -24 17 -49 18 -44
2z"/>
<path d="M1571 4359 c-34 -14 -23 -19 27 -12 29 4 39 9 30 14 -16 11 -27 10
-57 -2z"/>
<path d="M1718 4343 c28 -2 76 -2 105 0 28 2 5 3 -53 3 -58 0 -81 -1 -52 -3z"/>
<path d="M1508 4333 c7 -3 16 -2 19 1 4 3 -2 6 -13 5 -11 0 -14 -3 -6 -6z"/>
<path d="M1608 4333 c7 -3 16 -2 19 1 4 3 -2 6 -13 5 -11 0 -14 -3 -6 -6z"/>
<path d="M1928 4333 c6 -2 18 -2 25 0 6 3 1 5 -13 5 -14 0 -19 -2 -12 -5z"/>
<path d="M1778 4313 c7 -3 16 -2 19 1 4 3 -2 6 -13 5 -11 0 -14 -3 -6 -6z"/>
<path d="M1613 4303 c9 -2 23 -2 30 0 6 3 -1 5 -18 5 -16 0 -22 -2 -12 -5z"/>
<path d="M1908 4303 c7 -3 16 -2 19 1 4 3 -2 6 -13 5 -11 0 -14 -3 -6 -6z"/>
<path d="M1685 4260 c-3 -6 1 -7 9 -4 18 7 21 14 7 14 -6 0 -13 -4 -16 -10z"/>
<path d="M1816 4258 c5 -8 2 -9 -9 -5 -10 3 -17 3 -17 -2 0 -9 61 -22 69 -15
2 2 -2 10 -9 19 -15 18 -45 21 -34 3z"/>
<path d="M1865 4260 c3 -4 16 -10 30 -12 13 -3 22 -2 20 2 -3 4 -16 10 -30 12
-13 3 -22 2 -20 -2z"/>
<path d="M1730 4250 c-12 -8 -11 -10 8 -10 12 0 22 5 22 10 0 13 -11 13 -30 0z"/>
<path d="M1675 4220 c-16 -11 -25 -20 -20 -20 10 0 64 39 55 40 -3 0 -18 -9
-35 -20z"/>
<path d="M1773 4203 c-3 -10 -17 -30 -31 -45 -22 -24 -23 -30 -13 -59 13 -39
14 -42 2 -34 -5 3 -12 1 -16 -4 -3 -6 -13 -8 -23 -5 -16 5 -16 5 1 -6 20 -13
23 -50 5 -69 -8 -9 -8 -11 -2 -8 7 4 14 -3 18 -18 4 -14 12 -25 18 -25 9 0 9
3 0 12 -23 23 -14 48 17 48 16 0 32 -6 34 -12 4 -10 6 -10 6 0 1 15 61 17 61
1 0 -6 -5 -19 -10 -30 -7 -12 -7 -19 -1 -19 6 0 13 17 16 38 3 20 8 49 10 65
4 25 -3 32 -29 28 -5 -1 -6 6 -2 15 15 38 17 62 6 69 -7 4 -11 1 -9 -6 1 -8 1
-24 0 -37 -1 -19 -5 -22 -28 -16 -22 4 -25 3 -13 -5 12 -9 11 -11 -8 -11 -15
0 -21 4 -16 12 4 7 3 8 -4 4 -7 -4 -17 4 -24 20 -11 23 -10 28 12 46 15 13 33
17 49 14 25 -5 25 -5 4 6 -13 6 -23 15 -23 20 0 5 4 6 10 3 6 -3 7 1 4 9 -8
21 -13 20 -21 -1z m6 -159 c2 -2 -10 -4 -27 -4 -18 0 -32 4 -32 9 0 9 49 5 59
-5z m71 -19 c0 -21 -5 -25 -27 -24 l-28 1 25 8 c25 8 25 8 2 9 -13 1 -32 -3
-42 -9 -13 -7 -19 -6 -24 5 -3 8 -2 14 2 14 4 -1 25 0 47 1 39 2 39 3 10 10
l-30 8 33 1 c28 1 32 -2 32 -24z m-103 -21 c-3 -3 -12 -4 -19 -1 -8 3 -5 6 6
6 11 1 17 -2 13 -5z"/>
<path d="M1520 4196 c0 -18 20 -25 45 -16 18 7 18 8 3 14 -42 14 -48 15 -48 2z"/>
<path d="M1608 4185 c-7 -16 -19 -25 -35 -25 -14 0 -23 -6 -23 -15 0 -17 16
-20 25 -5 11 18 25 10 25 -15 0 -14 5 -25 11 -25 6 0 9 6 6 13 -2 6 4 28 15
47 l20 35 -21 -25 c-24 -29 -28 -15 -5 18 9 13 11 22 4 22 -6 0 -16 -11 -22
-25z"/>
<path d="M1792 4130 c14 -22 24 -19 15 5 -4 8 -11 15 -17 15 -6 0 -6 -7 2 -20z"/>
<path d="M1550 4098 c0 -19 2 -20 10 -8 13 19 13 30 0 30 -5 0 -10 -10 -10
-22z"/>
<path d="M1617 4063 c-10 -9 -9 -101 1 -107 5 -3 8 22 8 55 -1 32 -1 59 -2 59
0 0 -4 -3 -7 -7z"/>
<path d="M1940 4060 c0 -8 5 -22 10 -30 9 -13 10 -13 10 0 0 8 -5 22 -10 30
-9 13 -10 13 -10 0z"/>
<path d="M1552 4030 c0 -19 2 -27 5 -17 2 9 2 25 0 35 -3 9 -5 1 -5 -18z"/>
<path d="M1888 4013 c7 -3 16 -2 19 1 4 3 -2 6 -13 5 -11 0 -14 -3 -6 -6z"/>
<path d="M1652 3990 c0 -14 2 -19 5 -12 2 6 2 18 0 25 -3 6 -5 1 -5 -13z"/>
<path d="M1945 3988 c4 -14 2 -35 -4 -46 -12 -23 -4 -55 11 -46 5 3 5 11 -2
19 -8 9 -8 14 1 17 15 5 15 56 0 71 -10 9 -11 6 -6 -15z"/>
<path d="M1562 3921 c1 -16 5 -28 9 -26 6 5 0 55 -7 55 -3 0 -3 -13 -2 -29z"/>
<path d="M1616 3911 c-4 -6 -2 -11 3 -11 6 0 12 -10 12 -22 1 -17 3 -18 6 -6
6 23 -12 55 -21 39z"/>
<path d="M1750 3893 c13 -18 27 -33 32 -33 16 0 6 15 -25 40 l-31 25 24 -32z"/>
<path d="M2030 4119 c0 -5 5 -7 10 -4 6 3 10 8 10 11 0 2 -4 4 -10 4 -5 0 -10
-5 -10 -11z"/>
<path d="M1190 2441 c0 -5 5 -13 10 -16 6 -3 10 -2 10 4 0 5 -4 13 -10 16 -5
3 -10 2 -10 -4z"/>
<path d="M1400 2636 c0 -2 8 -10 18 -17 15 -13 16 -12 3 4 -13 16 -21 21 -21
13z"/>
<path d="M1300 2545 c19 -19 36 -35 39 -35 3 0 -10 16 -29 35 -19 19 -36 35
-39 35 -3 0 10 -16 29 -35z"/>
<path d="M1365 2480 c10 -11 20 -20 23 -20 3 0 -3 9 -13 20 -10 11 -20 20 -23
20 -3 0 3 -9 13 -20z"/>
<path d="M1277 2203 c-2 -4 -10 -25 -16 -45 -11 -33 -17 -38 -42 -38 -16 0
-29 -2 -29 -5 0 -3 11 -23 25 -45 14 -22 21 -40 16 -40 -6 0 -13 6 -17 12 -6
9 -10 5 -14 -12 -5 -22 -11 -25 -48 -25 -23 0 -42 -1 -42 -3 0 -1 9 -21 21
-43 19 -38 19 -42 4 -59 -16 -18 -15 -20 16 -33 19 -8 56 -24 82 -37 48 -23
48 -23 42 -62 l-7 -39 48 31 c26 16 54 30 61 30 7 0 35 -45 63 -99 32 -65 70
-122 108 -163 92 -99 169 -194 188 -230 9 -18 19 -55 23 -83 6 -49 7 -50 40
-50 l35 0 13 69 c14 81 39 122 129 213 120 122 158 174 199 274 33 78 38 83
61 70 11 -5 34 -17 52 -26 l33 -16 -6 34 -7 33 82 38 c79 36 81 38 65 56 -16
18 -16 21 4 53 11 19 21 37 21 41 0 3 -18 6 -40 6 -36 0 -40 3 -40 25 0 16 -6
25 -15 25 -14 0 -14 3 0 30 17 33 18 41 8 39 -25 -4 -54 3 -58 14 -2 6 -9 25
-15 41 l-11 29 -34 -33 -33 -32 -31 21 c-17 13 -32 18 -32 12 -1 -6 -3 -15 -4
-21 -1 -5 -3 -18 -4 -27 -1 -14 -3 -15 -10 -5 -6 10 -10 10 -21 -3 -16 -20
-26 -19 -61 5 l-28 21 -7 -51 c-6 -44 -9 -50 -30 -50 -23 0 -22 -3 25 -79 l49
-79 -24 -25 c-27 -29 -25 -32 33 -42 24 -4 45 -10 48 -15 3 -4 -18 -54 -46
-110 -46 -91 -62 -113 -162 -211 -61 -60 -112 -109 -114 -109 -2 0 -3 57 -3
126 l0 127 70 -7 70 -7 -18 30 -17 30 59 60 c56 57 59 62 47 85 -8 13 -11 41
-9 61 l4 36 -37 -6 c-32 -6 -39 -3 -49 16 l-12 22 -19 -24 c-22 -29 -23 -22
-4 56 8 32 12 61 10 63 -2 2 -12 -1 -24 -7 -18 -10 -24 -5 -56 44 -21 30 -39
55 -41 55 -2 0 -15 -22 -29 -49 -30 -59 -36 -64 -69 -51 -30 11 -31 9 -11 -56
20 -65 19 -86 -3 -51 -20 33 -25 34 -41 3 -11 -20 -17 -22 -47 -16 -29 7 -34
5 -34 -10 0 -10 5 -31 11 -47 8 -22 7 -30 -5 -39 -25 -18 -19 -30 44 -85 59
-51 59 -52 45 -80 -8 -15 -15 -31 -15 -34 0 -4 29 -3 64 0 l65 7 3 -131 c2
-72 0 -131 -4 -131 -5 0 -8 4 -8 9 0 6 -45 57 -100 115 -54 57 -114 128 -133
158 -45 70 -90 159 -83 165 3 3 25 8 51 10 25 3 45 8 45 11 0 3 -9 16 -21 28
l-20 21 45 78 c25 42 46 79 46 81 0 2 -9 4 -19 4 -16 0 -21 9 -27 45 -3 25 -9
45 -12 45 -3 0 -15 -9 -27 -20 -21 -20 -55 -19 -55 1 0 17 -17 9 -28 -13 -11
-23 -11 -23 -13 5 -1 15 -3 32 -4 37 -1 6 -3 18 -4 27 -1 14 -5 13 -26 -7
l-25 -24 -34 33 c-19 18 -36 29 -39 24z m975 -208 c-16 -50 -25 -91 -21 -93 4
-2 26 6 49 18 55 28 64 18 10 -12 -32 -18 -40 -28 -37 -45 2 -13 3 -23 2 -23
0 0 -20 9 -43 20 -22 11 -46 20 -53 20 -8 0 -8 4 1 15 10 12 10 21 1 41 -18
41 -12 51 10 17 12 -18 24 -33 28 -33 3 0 22 41 41 90 19 50 36 87 38 82 1 -4
-10 -48 -26 -97z m-892 -2 c17 -46 35 -83 39 -83 4 0 20 23 35 51 36 65 45 57
12 -10 -31 -61 -32 -71 -6 -71 38 0 20 -18 -22 -22 -24 -3 -52 -8 -63 -13 -16
-6 -18 -6 -7 6 20 22 15 27 -55 63 -81 42 -78 46 7 10 33 -15 63 -24 66 -21 3
3 -6 37 -20 77 -23 63 -34 111 -22 99 2 -2 18 -41 36 -86z m449 -148 c-1 -53
1 -98 4 -101 3 -4 28 11 54 32 l48 39 -44 -49 -44 -49 23 -17 c23 -17 22 -18
-43 -16 -37 0 -67 3 -67 5 0 2 8 9 17 16 15 11 11 18 -38 65 l-54 52 54 -41
c29 -23 57 -41 61 -41 8 0 20 99 20 161 0 22 2 39 5 39 3 0 4 -43 4 -95z"/>
<path d="M1871 714 c0 -11 3 -14 6 -6 3 7 2 16 -1 19 -3 4 -6 -2 -5 -13z"/>
<path d="M1884 686 c-9 -24 3 -46 25 -46 31 0 33 15 6 40 -22 20 -25 21 -31 6z"/>
</g>
</svg>
