<?xml version="1.0" standalone="no"?>
<!DOCTYPE svg PUBLIC "-//W3C//DTD SVG 20010904//EN"
 "http://www.w3.org/TR/2001/REC-SVG-20010904/DTD/svg10.dtd">
<svg version="1.0" xmlns="http://www.w3.org/2000/svg"
 width="300.000000pt" height="87.000000pt" viewBox="0 0 300.000000 87.000000"
 preserveAspectRatio="xMidYMid meet">

<g transform="translate(0.000000,87.000000) scale(0.100000,-0.100000)"
fill="#000000" stroke="none">
<path d="M338 743 c7 -3 16 -2 19 1 4 3 -2 6 -13 5 -11 0 -14 -3 -6 -6z"/>
<path d="M405 730 c3 -5 12 -10 20 -10 8 0 17 5 20 10 4 6 -5 10 -20 10 -15 0
-24 -4 -20 -10z"/>
<path d="M492 708 c3 -7 15 -15 28 -16 21 -3 22 -2 11 12 -16 19 -44 21 -39 4z"/>
<path d="M285 696 c-11 -8 -14 -16 -8 -19 6 -4 18 0 28 7 11 8 14 16 8 19 -6
4 -18 0 -28 -7z"/>
<path d="M595 700 c3 -5 8 -10 11 -10 2 0 4 5 4 10 0 6 -5 10 -11 10 -5 0 -7
-4 -4 -10z"/>
<path d="M360 686 c-10 -13 -9 -17 3 -22 24 -9 52 0 52 16 0 21 -39 24 -55 6z"/>
<path d="M580 660 c6 -11 17 -20 26 -20 12 0 12 4 4 20 -6 11 -17 20 -26 20
-12 0 -12 -4 -4 -20z"/>
<path d="M450 657 c0 -20 21 -37 46 -37 29 0 39 16 24 35 -15 19 -70 20 -70 2z"/>
<path d="M180 625 c-8 -9 -8 -15 -2 -15 12 0 26 19 19 26 -2 2 -10 -2 -17 -11z"/>
<path d="M232 628 c-14 -14 -16 -48 -4 -48 12 0 42 34 42 48 0 16 -23 15 -38
0z"/>
<path d="M306 617 c-11 -8 -17 -23 -14 -38 2 -19 8 -23 28 -21 14 1 34 11 44
22 16 16 17 22 6 34 -15 19 -40 20 -64 3z"/>
<path d="M555 620 c-9 -14 22 -60 40 -60 23 0 28 19 11 45 -17 26 -40 32 -51
15z"/>
<path d="M650 609 c7 -11 14 -18 17 -15 8 8 -5 36 -17 36 -7 0 -7 -6 0 -21z"/>
<path d="M423 600 c-31 -13 -31 -63 -1 -84 29 -20 41 -20 68 2 28 22 19 65
-16 81 -14 6 -26 11 -27 10 -1 0 -12 -4 -24 -9z"/>
<path d="M636 571 c-8 -12 11 -61 23 -61 15 0 19 23 8 48 -11 23 -22 28 -31
13z"/>
<path d="M701 564 c0 -11 3 -14 6 -6 3 7 2 16 -1 19 -3 4 -6 -2 -5 -13z"/>
<path d="M1020 460 c0 -139 18 -165 22 -32 l3 87 38 -67 c21 -38 42 -68 47
-68 5 0 26 30 47 68 l38 67 3 -87 c4 -133 22 -107 22 32 0 66 -4 120 -9 120
-5 0 -28 -36 -50 -80 -23 -44 -46 -80 -50 -80 -4 0 -27 36 -51 80 -24 44 -47
80 -52 80 -4 0 -8 -54 -8 -120z"/>
<path d="M1345 486 c-25 -53 -48 -108 -51 -122 -9 -37 14 -29 30 11 15 34 16
35 71 35 53 0 56 -1 72 -35 9 -19 23 -35 31 -35 8 0 12 6 9 13 -35 85 -92 205
-103 216 -11 13 -20 0 -59 -83z m75 8 c11 -25 20 -50 20 -55 0 -5 -21 -9 -46
-9 -33 0 -45 4 -41 13 29 73 40 97 43 97 3 0 14 -21 24 -46z"/>
<path d="M1550 485 c0 -88 2 -98 25 -120 18 -19 35 -25 70 -25 56 0 81 23 90
82 9 63 2 151 -12 156 -10 3 -13 -18 -13 -83 0 -78 -2 -88 -25 -110 -29 -30
-55 -32 -86 -6 -21 17 -24 29 -27 110 -2 50 -8 91 -13 91 -5 0 -9 -43 -9 -95z"/>
<path d="M1798 574 c-5 -4 -8 -59 -8 -121 0 -87 3 -114 13 -111 7 3 13 25 15
52 2 26 9 49 16 52 28 11 66 -16 88 -61 12 -25 28 -45 35 -45 18 0 16 9 -12
59 l-26 44 21 22 c23 25 26 63 6 90 -10 14 -30 20 -77 23 -35 2 -67 0 -71 -4z
m91 -20 c39 -8 56 -36 41 -64 -8 -16 -21 -20 -60 -20 l-50 0 0 38 c0 54 6 58
69 46z"/>
<path d="M2020 461 c0 -74 4 -121 10 -121 6 0 10 45 10 114 0 66 -4 117 -10
121 -6 4 -10 -37 -10 -114z"/>
<path d="M2155 566 c-70 -31 -81 -156 -18 -206 30 -24 99 -27 129 -6 26 20 11
31 -25 18 -54 -19 -104 6 -114 57 -8 40 10 99 35 112 20 11 68 8 101 -6 12 -5
17 -3 17 8 0 15 -48 37 -79 37 -9 -1 -29 -7 -46 -14z"/>
<path d="M2337 574 c-4 -4 -7 -58 -7 -121 l0 -113 75 0 c43 0 75 4 75 10 0 6
-26 10 -59 10 -64 0 -69 4 -63 56 4 34 4 34 58 34 30 0 54 5 54 10 0 6 -24 10
-54 10 -48 0 -54 2 -58 23 -8 47 0 56 58 59 30 2 55 8 57 13 2 11 -125 20
-136 9z"/>
<path d="M2530 460 c0 -69 4 -120 9 -120 6 0 11 24 13 53 l3 52 60 5 c65 6 57
18 -15 22 -44 3 -45 4 -48 40 l-3 37 57 3 c35 2 59 8 62 16 3 9 -15 12 -67 12
l-71 0 0 -120z"/>
<path d="M2717 573 c-4 -3 -7 -58 -7 -120 0 -87 3 -114 13 -111 7 3 13 26 15
56 l3 52 70 0 69 0 0 -56 c0 -40 3 -55 13 -52 13 5 23 173 12 216 -10 40 -25
23 -25 -28 l0 -50 -70 0 -70 0 0 38 c0 39 -12 67 -23 55z"/>
<path d="M147 554 c-4 -4 -7 -14 -7 -23 0 -11 3 -12 11 -4 6 6 10 16 7 23 -2
6 -7 8 -11 4z"/>
<path d="M192 538 c-7 -7 -12 -22 -12 -35 0 -32 28 -30 36 3 8 30 -7 49 -24
32z"/>
<path d="M524 525 c-4 -14 -2 -36 3 -48 8 -18 5 -25 -24 -44 -42 -29 -43 -29
-43 2 0 29 -38 58 -71 53 -12 -2 -31 -15 -42 -30 -43 -58 20 -122 84 -86 28
16 29 16 29 -2 0 -10 2 -24 5 -32 3 -7 -6 -18 -21 -25 -24 -11 -29 -10 -54 17
-29 32 -58 38 -78 18 -17 -17 -15 -38 5 -60 15 -17 15 -18 -5 -18 -24 0 -29
-19 -10 -38 13 -13 50 -16 61 -5 4 3 0 15 -10 25 -15 17 -15 18 5 18 11 0 27
3 35 6 9 3 16 -3 20 -15 3 -14 -1 -22 -15 -27 -14 -4 -18 -12 -15 -26 3 -11 0
-21 -9 -25 -25 -9 -15 -23 17 -23 23 0 30 4 26 14 -6 14 29 30 45 20 13 -9 9
-24 -7 -24 -8 0 -15 -5 -15 -11 0 -6 10 -9 23 -7 12 2 20 7 17 11 -3 5 8 16
24 24 19 10 31 12 35 4 5 -7 15 -6 33 3 17 9 28 10 30 4 2 -6 9 -4 16 4 10 13
7 15 -20 16 -18 0 -38 -4 -45 -10 -10 -8 -13 -6 -13 5 0 9 9 21 20 27 15 8 20
8 20 -1 0 -7 7 -8 18 -4 9 4 24 8 32 9 22 3 40 15 40 28 0 5 -7 8 -15 4 -8 -3
-15 0 -15 5 0 6 -9 9 -20 6 -26 -7 -34 7 -14 24 13 10 17 10 24 -1 7 -12 12
-11 29 4 21 19 21 19 21 0 1 -19 1 -19 15 0 19 25 19 40 0 32 -9 -3 -15 0 -15
10 0 11 -6 15 -19 11 -27 -7 -34 27 -10 49 18 16 19 16 19 -5 0 -14 5 -21 13
-19 15 6 21 33 12 56 -5 13 -8 14 -14 3 -6 -9 -11 -4 -19 18 -11 30 -42 44
-42 19 -1 -7 -9 3 -18 22 -23 46 -68 55 -78 15z m84 -122 c-15 -18 -23 -16
-35 9 -8 18 -6 26 11 39 20 17 21 16 28 -9 4 -15 3 -31 -4 -39z m-98 -168 c0
-8 -4 -15 -9 -15 -5 0 -16 -3 -25 -6 -10 -4 -16 -1 -16 9 0 15 14 25 38 26 6
1 12 -6 12 -14z"/>
<path d="M255 514 c-21 -21 -16 -73 8 -88 15 -9 22 -7 38 13 23 28 24 54 3 75
-20 20 -29 20 -49 0z"/>
<path d="M690 506 c0 -14 5 -26 10 -26 6 0 10 9 10 19 0 11 -4 23 -10 26 -6 4
-10 -5 -10 -19z"/>
<path d="M731 464 c0 -11 3 -14 6 -6 3 7 2 16 -1 19 -3 4 -6 -2 -5 -13z"/>
<path d="M120 450 c0 -19 3 -21 12 -12 9 9 9 15 0 24 -9 9 -12 7 -12 -12z"/>
<path d="M162 414 c2 -15 9 -29 16 -32 10 -3 13 4 10 24 -2 15 -9 29 -16 32
-10 3 -13 -4 -10 -24z"/>
<path d="M710 399 c0 -11 5 -17 10 -14 6 3 10 13 10 21 0 8 -4 14 -10 14 -5 0
-10 -9 -10 -21z"/>
<path d="M220 370 c0 -30 30 -57 50 -45 14 9 12 49 -2 63 -23 23 -48 14 -48
-18z"/>
<path d="M736 383 c-6 -14 -5 -15 5 -6 7 7 10 15 7 18 -3 3 -9 -2 -12 -12z"/>
<path d="M110 381 c0 -5 5 -13 10 -16 6 -3 10 -2 10 4 0 5 -4 13 -10 16 -5 3
-10 2 -10 -4z"/>
<path d="M155 349 c-4 -6 0 -18 9 -27 15 -15 16 -15 16 5 0 25 -15 38 -25 22z"/>
<path d="M710 319 c0 -5 5 -7 10 -4 6 3 10 8 10 11 0 2 -4 4 -10 4 -5 0 -10
-5 -10 -11z"/>
<path d="M212 294 c4 -20 34 -41 45 -31 10 11 -11 41 -31 45 -12 3 -17 -2 -14
-14z"/>
<path d="M160 281 c0 -5 5 -13 10 -16 6 -3 10 -2 10 4 0 5 -4 13 -10 16 -5 3
-10 2 -10 -4z"/>
<path d="M680 259 c0 -5 5 -7 10 -4 6 3 10 8 10 11 0 2 -4 4 -10 4 -5 0 -10
-5 -10 -11z"/>
<path d="M216 236 c8 -20 34 -29 34 -12 0 8 -7 17 -16 20 -22 9 -24 8 -18 -8z"/>
<path d="M289 196 c16 -19 44 -21 39 -3 -3 6 -15 14 -28 15 -21 3 -22 2 -11
-12z"/>
<path d="M280 166 c0 -2 7 -6 15 -10 8 -3 15 -1 15 4 0 6 -7 10 -15 10 -8 0
-15 -2 -15 -4z"/>
<path d="M515 160 c-8 -13 5 -13 25 0 13 8 13 10 -2 10 -9 0 -20 -4 -23 -10z"/>
<path d="M565 160 c-3 -6 1 -7 9 -4 18 7 21 14 7 14 -6 0 -13 -4 -16 -10z"/>
<path d="M355 140 c4 -6 11 -8 16 -5 14 9 11 15 -7 15 -8 0 -12 -5 -9 -10z"/>
<path d="M420 130 c0 -5 7 -7 15 -4 8 4 15 8 15 10 0 2 -7 4 -15 4 -8 0 -15
-4 -15 -10z"/>
</g>
</svg>
