<svg xmlns="http://www.w3.org/2000/svg" version="1.1" xmlns:xlink="http://www.w3.org/1999/xlink" width="1500" height="175" viewBox="0 0 1500 175"><svg xml:space="preserve" width="1500" height="175" data-version="2" data-id="lg_1fU4XDkPTJGOIalpUw" viewBox="0 0 566 175" x="0" y="0"><rect width="100%" height="100%" fill="transparent"></rect><path d="M221.37 68.756v-32.88l2.15-18.18-.18-.04-5.62 17.49-6.31 15.36h-3.65l-6.43-15.33-5.98-17.52-.22.04 2.7 18.18v32.88h-6.57v-47.08l-1.02-7.67 7.81-.73 8.98 20.81 2.59 9.12 2.52-9.12 8.25-20.08 7.55-.73v55.48Z"></path><rect width="37.7" height="55.48" x="-18.85" y="-27.74" fill="none" rx="0" ry="0" transform="translate(209.59 41.52)"></rect><path d="M247.72 68.756h-6.93v-47.08l-1.1-7.67h34.5l-.73 5.84h-26.47l.73 6.94v9.67h22.63v5.29h-22.63Z"></path><rect width="34.5" height="54.75" x="-17.25" y="-27.38" fill="none" rx="0" ry="0" transform="translate(257.44 41.88)"></rect><path d="M315.29 68.756v-26.46h-20.74v26.46h-6.93v-47.08l-1.06-7.67 7.99-.73v23.18h20.74v-22.45l6.93-.73v55.48Z"></path><rect width="35.66" height="55.48" x="-17.83" y="-27.74" fill="none" rx="0" ry="0" transform="translate(304.89 41.52)"></rect><path d="M389.64 62.916h26.64l-.73 5.84h-33.03l.73-7.3v-39.78l-1.1-7.67 7.85-.73v43.07Z"></path><rect width="34.13" height="55.48" x="-17.07" y="-27.74" fill="none" rx="0" ry="0" transform="translate(399.71 41.52)"></rect><path d="m424.27 68.756 17.23-47.45 1.28-7.3 6.5-.73 20 55.48h-7.3l-5.4-16.42h-19.53l-6.06 16.42Zm22.38-51.1-1.64 11.68-6.17 17.52h15.95l-6.5-17.52Z"></path><rect width="45.01" height="55.48" x="-22.5" y="-27.74" fill="none" rx="0" ry="0" transform="translate(447.27 41.52)"></rect><path d="M478.22 68.756v-47.08l-1.09-7.3q2.19-.29 4.5-.51 2.32-.22 4.69-.22 4.24 0 8.07.53t6.73 1.91q2.91 1.39 4.62 3.82 1.72 2.43 1.72 6.18 0 3.98-1.72 6.87-1.71 2.88-4.89 4.41l-5.62 1.61 5.37.51q2.22.66 4.19 1.7 1.97 1.04 3.42 2.53 1.44 1.5 2.28 3.54.84 2.05.84 4.71 0 3.11-.82 5.55-.83 2.45-2.25 4.31-1.42 1.86-3.32 3.19-1.9 1.33-4.07 2.16-2.17.82-4.51 1.2-2.33.38-4.63.38Zm6.75-5.84h4.02q3.61 0 6.44-.53 2.83-.53 4.78-1.75 1.96-1.22 2.98-3.25 1.02-2.02 1.02-5.05 0-2.74-.95-4.67-.95-1.94-2.68-3.18-1.74-1.24-4.18-1.81-2.45-.56-5.4-.56h-6.03Zm0-36.02v9.56h3.84q2.22-.11 4.39-.69 2.18-.59 3.87-1.74 1.7-1.15 2.74-2.92 1.04-1.77 1.04-4.25 0-2.41-1.11-4-1.12-1.58-2.87-2.5-1.75-.91-3.92-1.27-2.17-.37-4.25-.37-1.24 0-2.58.09-1.33.09-2.46.31Z"></path><rect width="34.2" height="55.11" x="-17.1" y="-27.55" fill="none" rx="0" ry="0" transform="translate(494.73 41.7)"></rect><path d="m525.05 65.326 3.32-5.47q.73.47 1.92 1.07 1.18.61 2.64 1.15 1.46.55 3.11.92 1.64.36 3.32.36 2.26 0 4.54-.56 2.28-.57 4.13-1.76 1.84-1.18 2.99-3.01 1.15-1.82 1.15-4.34 0-2.37-1.09-4.16-1.1-1.79-2.89-3.21-1.79-1.43-4.09-2.6-2.3-1.16-4.69-2.33-2.39-1.17-4.69-2.43-2.3-1.26-4.08-2.86-1.79-1.61-2.89-3.65-1.09-2.05-1.09-4.79 0-3.54 1.49-6.2 1.5-2.67 3.91-4.45 2.41-1.79 5.47-2.7 3.07-.92 6.21-.92 7.77 0 14.34 4.38l-3.54 4.49q-2.48-1.46-4.76-2.15t-5.09-.69q-1.97 0-3.96.4t-3.58 1.29q-1.59.9-2.59 2.34-1 1.44-1 3.52 0 2.04 1.11 3.54t2.92 2.68q1.81 1.19 4.1 2.23 2.3 1.04 4.73 2.15 2.43 1.12 4.73 2.45 2.3 1.33 4.1 3.14 1.81 1.81 2.92 4.23 1.12 2.43 1.12 5.71 0 4.09-1.66 7.14t-4.38 5.07q-2.72 2.03-6.23 3.05-3.5 1.02-7.15 1.02-2.34 0-4.34-.27-2.01-.27-3.82-.78-1.8-.52-3.45-1.26-1.64-.75-3.21-1.74"></path><rect width="34.24" height="55.99" x="-17.12" y="-28" fill="none" rx="0" ry="0" transform="translate(542.67 41.88)"></rect><path stroke="#000" stroke-width="3.72" d="M142.321 1.297v168.716"></path><path d="M88.595 27.766c-9.168-9.17-21.36-14.22-34.33-14.22-12.97 0-25.165 5.05-34.333 14.22C10.764 36.936 5.71 49.13 5.71 62.098c0 8.767 2.028 16.115 6.377 23.122 3.844 6.19 8.992 11.303 14.449 16.717 10.059 9.978 21.461 21.3 26.32 42.275a1.445 1.445 0 0 0 2.815 0C60.53 123.24 71.94 111.922 82 101.937c5.455-5.413 10.607-10.526 14.44-16.717 4.351-7.007 6.375-14.354 6.375-23.122 0-12.969-5.048-25.162-14.219-34.332m-34.33 72.16c-20.86 0-37.828-16.965-37.828-37.827s16.967-37.83 37.828-37.83c20.856 0 37.829 16.971 37.829 37.83-.002 20.856-16.973 37.828-37.83 37.828"></path><path d="M60.159 51.942c-.412-1.334-.753-3.65-.753-5.05v-2.004h.78a1.113 1.113 0 0 0 1.112-1.105v-1.906a1.113 1.113 0 0 0-1.111-1.114H48.334a1.114 1.114 0 0 0-1.106 1.114v1.906c0 .609.496 1.105 1.106 1.105h.784v2.005c0 1.4-.347 3.715-.752 5.05L40.254 78.51c-.295.974-.155 1.949.382 2.677.543.73 1.431 1.152 2.452 1.152h22.344c1.02 0 1.917-.42 2.456-1.152.544-.727.677-1.703.378-2.677zm-7.6 21.568a1.921 1.921 0 1 1 0-3.842 1.921 1.921 0 0 1 0 3.842m2.989 5.326a1.623 1.623 0 0 1-1.622-1.624 1.622 1.622 0 1 1 3.245 0 1.623 1.623 0 0 1-1.623 1.624M45.345 68.284l4.822-15.785c.462-1.51.838-4.027.838-5.606v-2.005h6.51v2.005c0 1.58.375 4.096.835 5.606l4.82 15.785z"></path><circle r="1.5" transform="translate(55.6 64.39)scale(1.3872)"></circle><circle r="1.16" transform="translate(51.3 59.66)scale(1.3872)"></circle><path d="M55.332 56.222a1.35 1.35 0 1 0-.002-2.701 1.35 1.35 0 0 0 .002 2.7m134.018 70.435v-24.5h2.13l11.2 19.11h-1.12l11.1-19.11h2.13v24.5h-2.48v-20.62h.59l-10.22 17.5h-1.22l-10.29-17.5h.66v20.62Z"></path><rect width="25.44" height="24.5" x="-12.72" y="-12.25" fill="none" rx="0" ry="0" transform="translate(202.57 114.9)"></rect><path d="M233.76 126.656v-4.06l-.1-.67v-6.79q0-2.34-1.32-3.6-1.31-1.26-3.9-1.26-1.78 0-3.39.59-1.61.6-2.73 1.58l-1.12-1.86q1.4-1.19 3.36-1.84 1.96-.64 4.13-.64 3.57 0 5.51 1.76 1.94 1.77 1.94 5.38v11.41Zm-6.33.17q-2.07 0-3.59-.68t-2.33-1.89q-.8-1.21-.8-2.78 0-1.44.68-2.61t2.24-1.89q1.56-.72 4.18-.72h6.34v1.86h-6.27q-2.66 0-3.69.94-1.03.95-1.03 2.35 0 1.57 1.22 2.52 1.23.94 3.43.94 2.1 0 3.62-.96 1.53-.96 2.23-2.78l.56 1.71q-.7 1.82-2.44 2.91-1.73 1.08-4.35 1.08"></path><rect width="15.43" height="18.72" x="-7.71" y="-9.36" fill="none" rx="0" ry="0" transform="translate(228.93 117.97)"></rect><path d="M250.21 126.826q-2.62 0-4.71-1.19-2.08-1.19-3.27-3.31-1.19-2.11-1.19-4.88 0-2.8 1.19-4.9 1.19-2.1 3.27-3.27 2.09-1.17 4.71-1.17 2.42 0 4.32 1.08 1.91 1.09 3.05 3.17t1.14 5.09q0 2.98-1.12 5.08t-3.03 3.2q-1.91 1.1-4.36 1.1m.18-2.2q1.96 0 3.51-.9 1.56-.89 2.45-2.52.9-1.62.9-3.76 0-2.17-.9-3.78-.89-1.61-2.45-2.5-1.55-.89-3.51-.89-1.93 0-3.47.89-1.54.89-2.45 2.5-.91 1.61-.91 3.78 0 2.14.91 3.76.91 1.63 2.45 2.52 1.54.9 3.47.9m6.93 2.03v-5.53l.24-3.71-.35-3.71v-13.02h2.49v25.97Z"></path><rect width="18.66" height="26.14" x="-9.33" y="-13.07" fill="none" rx="0" ry="0" transform="translate(250.87 114.26)"></rect><path d="M274.43 126.826q-2.87 0-5.04-1.21-2.17-1.2-3.39-3.32-1.23-2.12-1.23-4.85 0-2.73 1.17-4.83 1.18-2.1 3.22-3.31 2.05-1.2 4.61-1.2 2.59 0 4.6 1.17t3.17 3.29q1.15 2.12 1.15 4.88 0 .18-.02.37-.01.19-.01.4h-16v-1.85h14.67l-.98.73q0-1.99-.86-3.55-.86-1.56-2.33-2.43-1.47-.88-3.39-.88-1.89 0-3.4.88-1.5.87-2.34 2.45-.84 1.57-.84 3.6v.39q0 2.1.92 3.69.93 1.59 2.59 2.48 1.67.9 3.8.9 1.68 0 3.13-.6 1.46-.59 2.51-1.82l1.4 1.61q-1.23 1.47-3.07 2.24-1.83.77-4.04.77"></path><rect width="17.92" height="18.72" x="-8.96" y="-9.36" fill="none" rx="0" ry="0" transform="translate(274.23 117.97)"></rect><path d="M297.36 126.656v-20.69q0-2.45 1.43-3.95 1.44-1.51 4.13-1.51 1.05 0 2.03.28.98.28 1.65.88l-.84 1.85q-.53-.45-1.23-.68-.7-.23-1.5-.23-1.58 0-2.42.88-.84.87-.84 2.59v2.8l.07 1.15v16.63Zm-3.29-16.31v-2.07h11.37v2.07Z"></path><rect width="12.53" height="26.15" x="-6.26" y="-13.07" fill="none" rx="0" ry="0" transform="translate(300.83 114.08)"></rect><path d="M315.98 126.826q-2.66 0-4.78-1.21-2.12-1.2-3.34-3.32-1.23-2.12-1.23-4.85 0-2.76 1.23-4.86 1.22-2.1 3.32-3.29 2.1-1.19 4.8-1.19 2.73 0 4.84 1.19 2.12 1.19 3.33 3.29t1.21 4.86q0 2.73-1.21 4.85-1.21 2.12-3.34 3.32-2.14 1.21-4.83 1.21m0-2.2q1.99 0 3.53-.9 1.54-.89 2.43-2.52.9-1.62.9-3.76 0-2.17-.9-3.78-.89-1.61-2.43-2.5-1.54-.89-3.5-.89t-3.5.89q-1.54.89-2.45 2.5-.91 1.61-.91 3.78 0 2.14.91 3.76.91 1.63 2.45 2.52 1.54.9 3.47.9"></path><rect width="18.73" height="18.72" x="-9.37" y="-9.36" fill="none" rx="0" ry="0" transform="translate(316.5 117.97)"></rect><path d="M330.43 126.656v-18.38h2.38v5.01l-.24-.88q.77-2.1 2.59-3.2 1.82-1.1 4.51-1.1v2.41q-.14 0-.28-.02-.14-.01-.28-.01-2.9 0-4.55 1.76-1.64 1.77-1.64 5.03v9.38Z"></path><rect width="9.24" height="18.55" x="-4.62" y="-9.28" fill="none" rx="0" ry="0" transform="translate(335.55 117.88)"></rect><path d="M188.82 172.526v-25.97h2.49v12.64l-.49-.95q.87-1.99 2.8-3.13 1.92-1.14 4.58-1.14 2.24 0 3.94.86 1.7.86 2.66 2.61.96 1.75.96 4.41v10.67h-2.48v-10.43q0-2.9-1.46-4.39-1.45-1.49-4.07-1.49-1.96 0-3.42.79-1.45.79-2.24 2.28-.78 1.48-.78 3.58v9.66Z"></path><rect width="16.94" height="25.97" x="-8.47" y="-12.98" fill="none" rx="0" ry="0" transform="translate(197.79 160.04)"></rect><path d="M220.08 172.706q-2.35 0-4.1-.88-1.75-.87-2.71-2.62t-.96-4.38v-10.67h2.48v10.39q0 2.94 1.45 4.43 1.46 1.49 4.08 1.49 1.93 0 3.34-.79 1.42-.79 2.17-2.29.76-1.51.76-3.61v-9.62h2.48v18.37h-2.38v-5.04l.39.91q-.88 2.03-2.72 3.17-1.83 1.14-4.28 1.14"></path><rect width="16.76" height="18.55" x="-8.38" y="-9.28" fill="none" rx="0" ry="0" transform="translate(221.19 163.93)"></rect><path d="M236 172.526v-18.37h2.38v4.97l-.38-.88q.84-1.99 2.71-3.13t4.43-1.14q2.69 0 4.58 1.35 1.89 1.35 2.45 4.04l-.98-.38q.81-2.24 2.85-3.62 2.05-1.39 4.92-1.39 2.24 0 3.9.86 1.67.86 2.59 2.61.93 1.75.93 4.41v10.67h-2.48v-10.43q0-2.9-1.39-4.39-1.38-1.49-3.9-1.49-1.89 0-3.27.79-1.38.79-2.14 2.28-.75 1.48-.75 3.58v9.66h-2.48v-10.43q0-2.9-1.4-4.39-1.4-1.49-3.92-1.49-1.86 0-3.26.79-1.4.79-2.15 2.28-.75 1.48-.75 3.58v9.66Z"></path><rect width="30.38" height="18.55" x="-15.19" y="-9.28" fill="none" rx="0" ry="0" transform="translate(251.69 163.75)"></rect><path d="M284.65 172.526v-4.06l-.1-.66v-6.79q0-2.35-1.32-3.61-1.31-1.26-3.9-1.26-1.78 0-3.39.6-1.61.59-2.73 1.57l-1.12-1.85q1.4-1.19 3.36-1.84 1.96-.65 4.13-.65 3.57 0 5.51 1.77t1.94 5.37v11.41Zm-6.33.18q-2.07 0-3.59-.68-1.52-.69-2.33-1.89-.8-1.21-.8-2.79 0-1.43.68-2.6.68-1.18 2.24-1.89 1.56-.72 4.18-.72h6.34v1.85h-6.27q-2.66 0-3.69.95-1.03.94-1.03 2.34 0 1.58 1.22 2.52 1.23.95 3.43.95 2.1 0 3.62-.96 1.53-.97 2.23-2.79l.56 1.72q-.7 1.82-2.44 2.9-1.73 1.09-4.35 1.09"></path><rect width="15.43" height="18.73" x="-7.71" y="-9.37" fill="none" rx="0" ry="0" transform="translate(279.81 163.84)"></rect><path d="M293.79 172.526v-18.37h2.38v5.04l-.39-.95q.88-1.99 2.8-3.13 1.93-1.14 4.59-1.14 2.24 0 3.93.86 1.7.86 2.66 2.61.97 1.75.97 4.41v10.67h-2.49v-10.43q0-2.9-1.45-4.39-1.45-1.49-4.08-1.49-1.96 0-3.41.79-1.45.79-2.24 2.28-.79 1.48-.79 3.58v9.66Z"></path><rect width="16.94" height="18.55" x="-8.47" y="-9.28" fill="none" rx="0" ry="0" transform="translate(302.76 163.75)"></rect></svg></svg>