<?xml version="1.0" encoding="utf-8"?>
<!-- Generator: Adobe Illustrator 21.1.0, SVG Export Plug-In . SVG Version: 6.00 Build 0)  -->
<svg version="1.1" id="Calque_1" xmlns="http://www.w3.org/2000/svg" xmlns:xlink="http://www.w3.org/1999/xlink" x="0px" y="0px"
	 viewBox="0 0 435 130" style="enable-background:new 0 0 435 130;" xml:space="preserve">
<style type="text/css">
	.st0{fill:#B4CC04;}
</style>
<g>
	<g>
		<path class="st0" d="M198.3,93.7c-2.8,0-5.3-0.5-7.8-1.6c-2.5-1.2-4.6-2.5-6.7-4.6c-1.8-2.1-3.5-4.4-4.6-7.4
			c-1.2-3-1.8-6.2-1.8-10.1v-0.2c0-3.7,0.7-7.1,1.8-10.1c1.2-3,2.8-5.3,4.6-7.4c1.8-2.1,4.1-3.5,6.7-4.6c2.5-0.9,5.1-1.6,7.8-1.6
			c3.5,0,6.2,0.7,8.5,2.1c2.3,1.4,4.1,3,5.8,4.8V30.7h12.9v61.9h-12.9v-6.4c-1.6,2.1-3.5,3.9-5.8,5.3
			C204.5,93,201.7,93.7,198.3,93.7z M201.5,82.9c1.6,0,3-0.2,4.4-0.9c1.4-0.7,2.5-1.4,3.5-2.5s1.8-2.5,2.3-3.9
			c0.7-1.6,0.9-3.2,0.9-5.1v-0.2c0-1.8-0.2-3.7-0.9-5.1c-0.7-1.6-1.4-3-2.3-3.9c-0.9-1.2-2.1-1.8-3.5-2.5c-1.4-0.7-2.8-0.9-4.4-0.9
			s-3,0.2-4.4,0.9s-2.5,1.4-3.5,2.5c-0.9,1.2-1.8,2.5-2.5,3.9c-0.7,1.6-0.9,3.2-0.9,5.1v0.2c0,1.8,0.2,3.7,0.9,5.1
			c0.7,1.6,1.4,3,2.5,3.9c0.9,1.2,2.3,1.8,3.5,2.5C198.8,82.4,200.1,82.9,201.5,82.9z"/>
		<path class="st0" d="M254.2,93.9c-3.5,0-6.4-0.5-9.4-1.6c-3-1.2-5.5-2.8-7.6-4.8c-2.1-2.1-3.7-4.6-5.1-7.4c-1.4-2.8-1.8-6-1.8-9.4
			v-0.2c0-3.2,0.5-6.2,1.6-9.2c1.2-3,2.5-5.3,4.6-7.6c2.1-2.1,4.4-3.9,7.1-5.1c2.8-1.2,5.8-1.8,9.2-1.8c3.7,0,7.1,0.7,9.9,2.1
			c2.8,1.4,5.1,3.2,6.9,5.5c1.8,2.3,3.2,4.8,4.1,7.8s1.4,6,1.4,9.2c0,0.5,0,1.2,0,1.6s0,1.2-0.2,1.8h-31.7c0.7,3,1.8,5.1,3.9,6.7
			c1.8,1.6,4.4,2.3,7.4,2.3c2.1,0,4.1-0.5,5.8-1.2c1.6-0.7,3.5-1.8,5.3-3.5l7.4,6.4c-2.1,2.8-4.8,4.8-7.8,6.2S258.3,93.9,254.2,93.9
			z M262.5,66.5c-0.5-3-1.4-5.3-3-6.9c-1.6-1.8-3.9-2.8-6.4-2.8c-2.8,0-4.8,0.9-6.7,2.5c-1.6,1.8-2.8,4.1-3.2,7.1H262.5z"/>
		<path class="st0" d="M296.3,93.7c-3.2,0-6.4-0.5-9.9-1.6c-3.5-1.2-6.7-2.8-9.7-5.3l5.5-8.5c2.5,1.8,5.1,3.2,7.4,4.1
			c2.5,0.9,4.8,1.4,6.9,1.4c1.8,0,3.2-0.2,4.1-0.9c0.9-0.7,1.4-1.4,1.4-2.5v-0.2c0-0.7-0.2-1.4-0.7-1.8c-0.5-0.5-1.2-0.9-2.1-1.4
			c-0.9-0.5-1.8-0.7-3-1.2c-1.2-0.2-2.3-0.7-3.5-1.2c-1.6-0.5-3.2-0.9-4.8-1.6c-1.6-0.7-3-1.6-4.4-2.5c-1.4-1.2-2.3-2.3-3.2-3.9
			c-0.9-1.6-1.2-3.5-1.2-5.5v-0.2c0-2.3,0.5-4.4,1.4-6.2s2.1-3.2,3.5-4.6c1.6-1.2,3.2-2.1,5.3-2.8c2.1-0.7,4.1-0.9,6.4-0.9
			c3,0,5.8,0.5,8.7,1.4s5.8,2.3,8.3,3.9l-4.8,9c-2.3-1.4-4.4-2.3-6.7-3c-2.3-0.7-4.1-1.2-5.8-1.2c-1.6,0-2.8,0.2-3.5,0.9
			c-0.7,0.7-1.2,1.4-1.2,2.3v0.2c0,0.7,0.2,1.2,0.7,1.6s1.2,0.9,2.1,1.4c0.9,0.5,1.8,0.9,3,1.2c1.2,0.5,2.3,0.7,3.5,1.2
			c1.6,0.5,3.2,1.2,4.8,1.8c1.6,0.7,3.2,1.6,4.4,2.5c1.4,0.9,2.3,2.3,3.2,3.7c0.9,1.4,1.4,3.2,1.4,5.3v0.2c0,2.5-0.5,4.8-1.4,6.7
			s-2.1,3.5-3.7,4.6c-1.6,1.2-3.5,2.1-5.5,2.8C301.1,93.5,298.8,93.7,296.3,93.7z"/>
		<path class="st0" d="M319.1,30.9h13.6v11.5h-13.6V30.9z M319.3,47.4h12.9V93h-12.9V47.4z"/>
		<path class="st0" d="M360.5,106.6c-3.7,0-7.4-0.5-10.6-1.2c-3.5-0.9-6.4-2.1-9.4-3.5l4.4-9.7c2.3,1.4,4.8,2.3,7.1,3
			c2.3,0.7,5.1,1.2,8.3,1.2c4.4,0,7.6-1.2,9.9-3.2s3.2-5.1,3.2-9.2v-2.3c-1.8,2.3-3.9,4.1-6.2,5.5c-2.3,1.4-5.1,1.8-8.5,1.8
			c-2.8,0-5.3-0.5-7.6-1.4c-2.5-0.9-4.6-2.3-6.4-4.1s-3.5-4.1-4.4-6.7c-1.2-2.5-1.6-5.8-1.6-9v-0.2c0-3.5,0.5-6.4,1.6-9
			s2.5-4.8,4.6-6.7c1.8-1.8,3.9-3.2,6.4-4.1c2.5-0.9,5.1-1.4,7.6-1.4c3.5,0,6.4,0.7,8.7,1.8c2.3,1.4,4.4,3,6,4.8v-6h12.9v35.2
			c0,8.1-1.8,14-5.8,17.9c-2.1,2.1-4.8,3.7-8.1,4.6C368.7,106.1,364.8,106.6,360.5,106.6z M362.1,78.5c1.6,0,3-0.2,4.4-0.7
			c1.4-0.5,2.5-1.2,3.5-2.1c0.9-0.9,1.8-2.1,2.3-3.5c0.5-1.4,0.9-2.8,0.9-4.1v-0.2c0-1.6-0.2-3-0.9-4.1c-0.5-1.4-1.4-2.5-2.3-3.5
			s-2.1-1.6-3.5-2.1c-1.4-0.5-2.8-0.7-4.4-0.7c-1.6,0-3,0.2-4.4,0.7c-1.4,0.5-2.5,1.2-3.5,2.1s-1.8,2.1-2.3,3.5
			c-0.5,1.4-0.9,2.8-0.9,4.1v0.2c0,3.2,1.2,5.8,3.2,7.6C356.1,77.6,358.9,78.5,362.1,78.5z"/>
		<path class="st0" d="M393.1,47.4H406v6.4c0.7-0.9,1.6-1.8,2.5-2.8s1.8-1.6,3-2.3c1.2-0.7,2.3-1.2,3.5-1.6c1.4-0.5,2.8-0.7,4.4-0.7
			c4.8,0,8.7,1.6,11.5,4.6c2.8,3,4.1,7.1,4.1,12.4V93h-12.9V67.7c0-3-0.7-5.3-2.1-6.9s-3.2-2.3-5.8-2.3c-2.5,0-4.4,0.7-6,2.3
			c-1.4,1.6-2.1,3.9-2.1,6.9V93h-12.9V47.4H393.1z"/>
	</g>
	<path class="st0" d="M87-23.4c-48.3-0.5-87.4,38.9-87,87c0.5,46.9,38.6,85.1,85.6,85.6c48.3,0.5,87.4-38.9,87-87
		C172.1,15.2,133.7-22.9,87-23.4z M126.5,93.5c0,0.2-0.2,0.2-0.2,0.2H124c-0.2,0-0.2,0-0.2-0.2l-17.5-53.4L88.8,93.5
		c0,0.2-0.2,0.2-0.2,0.2h-2.3c-0.2,0-0.2,0-0.2-0.2L66.3,36.2L45.3,60.1c3,0,6,0.5,8.5,1.2c2.8,0.7,5.3,1.8,7.4,3.2
		c2.1,1.4,3.7,3.2,4.8,5.3c1.2,2.1,1.8,4.6,1.8,7.4v0.2c0,2.5-0.5,4.8-1.6,6.9s-2.5,3.9-4.4,5.3S58,92.3,55.7,93
		c-2.3,0.9-4.8,1.2-7.6,1.2c-4.8,0-9-0.9-12.7-3c-3.7-2.1-6.7-4.6-9-7.8c-0.2-0.2,0-0.5,0-0.5l2.3-1.8H29c0,0,0.2,0,0.2,0.2
		c2.3,3,5.1,5.3,8.1,7.1c3.2,1.8,6.9,2.5,10.8,2.5c2.1,0,4.1-0.2,6.2-0.9c1.8-0.7,3.7-1.6,5.1-2.8c1.4-1.2,2.5-2.8,3.5-4.4
		s1.4-3.5,1.4-5.5v-0.2c0-2.3-0.5-4.4-1.4-6s-2.3-3-4.1-4.1c-1.8-1.2-3.9-1.8-6.4-2.5c-2.5-0.5-5.3-0.9-8.3-0.9h-2.5
		c-0.2,0-0.2,0-0.2-0.2l-0.9-1.6c0-0.2,0-0.2,0-0.5l20.9-24.8h-32c-0.2,0-0.5-0.2-0.5-0.5v-2.5c0-0.2,0.2-0.5,0.5-0.5h36.1h0.5h2.5
		c0.2,0,0.2,0,0.2,0.2L87,87.2L104.4,33c0-0.2,0.2-0.2,0.5-0.2h2.3c0.2,0,0.2,0,0.5,0.2l17.5,54.5l18.4-54.3c0-0.2,0.2-0.2,0.2-0.2
		h3c0.2,0,0.2,0,0.2,0.2v0.2L126.5,93.5z"/>
</g>
</svg>
